<svg xmlns="http://www.w3.org/2000/svg" width="165" height="29" viewBox="0 0 165 29">
  <g fill="none" fill-rule="evenodd">
    <rect width="165" height="29" fill="#4C648A"/>
    <path fill="#FFF" fill-rule="nonzero" d="M41.4882812,18 L40.9550781,16.0664062 L39.0449219,16.0664062 L38.5,18 L37.1171875,18 L39.6132812,10.5234375 L40.3984375,10.5234375 L42.8945312,18 L41.4882812,18 Z M39.3085938,15.1347656 L40.6972656,15.1347656 L40.0117188,12.6503906 L39.3085938,15.1347656 Z M45.5625,10.5234375 L47.9296875,10.5234375 C48.8242232,10.5234375 49.4833963,10.7197246 49.9072266,11.1123047 C50.3310568,11.5048848 50.5429688,12.0527309 50.5429688,12.7558594 C50.5429688,13.0292982 50.483399,13.302733 50.3642578,13.5761719 C50.2451166,13.8496107 50.0771495,14.0908193 49.8603516,14.2998047 C49.6435536,14.5087901 49.3945327,14.6582027 49.1132812,14.7480469 L50.8652344,18 L49.3535156,18 L47.8066406,14.90625 L46.9335938,14.90625 L46.9335938,18 L45.5625,18 L45.5625,10.5234375 Z M48.0117188,13.7636719 C48.3984394,13.7636719 48.687499,13.673829 48.8789062,13.4941406 C49.0703135,13.3144522 49.1660156,13.0683609 49.1660156,12.7558594 C49.1660156,12.4042951 49.0732431,12.142579 48.8876953,11.9707031 C48.7021475,11.7988273 48.4101582,11.7128906 48.0117188,11.7128906 L46.9335938,11.7128906 L46.9335938,13.7636719 L48.0117188,13.7636719 Z M55.2675781,18 L55.2675781,11.6894531 L53.2402344,11.6894531 L53.2402344,10.5234375 L58.7480469,10.5234375 L58.7480469,11.6894531 L56.6386719,11.6894531 L56.6386719,18 L55.2675781,18 Z M61.8789062,18 L61.8789062,16.8867188 L63.3261719,16.8867188 L63.3261719,11.6425781 L61.9492188,11.6425781 L61.9492188,10.5234375 L66.1210938,10.5234375 L66.1210938,11.6425781 L64.6738281,11.6425781 L64.6738281,16.8984375 L66.1855469,16.8984375 L66.1855469,18 L61.8789062,18 Z M72.3867188,17.1386719 C72.8945338,17.1386719 73.3457012,16.789066 73.7402344,16.0898438 L74.7597656,16.7519531 C74.4785142,17.2324243 74.1308614,17.5966784 73.7167969,17.8447266 C73.3027323,18.0927747 72.8300808,18.2167969 72.2988281,18.2167969 C71.7363253,18.2167969 71.2324241,18.0722671 70.7871094,17.7832031 C70.3417946,17.4941392 69.9902357,17.055667 69.7324219,16.4677734 C69.4746081,15.8798799 69.3457031,15.1582074 69.3457031,14.3027344 C69.3457031,13.3769485 69.4951157,12.6171905 69.7939453,12.0234375 C70.0927749,11.4296845 70.4736305,10.9990248 70.9365234,10.7314453 C71.3994164,10.4638658 71.8906224,10.3300781 72.4101562,10.3300781 C72.9765653,10.3300781 73.4667948,10.4804672 73.8808594,10.78125 C74.2949239,11.0820328 74.6152332,11.4999973 74.8417969,12.0351562 L73.8691406,12.5097656 L73.8574219,12.515625 L73.8574219,12.5097656 C73.7089836,12.0996073 73.51172,11.8144539 73.265625,11.6542969 C73.01953,11.4941398 72.7460953,11.4140625 72.4453125,11.4140625 C71.8671846,11.4140625 71.438478,11.66406 71.1591797,12.1640625 C70.8798814,12.664065 70.7402344,13.3574174 70.7402344,14.2441406 C70.7402344,14.7871121 70.8095696,15.2783181 70.9482422,15.7177734 C71.0869148,16.1572288 71.2822253,16.503905 71.5341797,16.7578125 C71.7861341,17.01172 72.0703109,17.1386719 72.3867188,17.1386719 Z M73.7167969,12.4335938 C73.7167969,12.4218749 73.7226562,12.4160156 73.734375,12.4160156 C73.7460938,12.4160156 73.7636718,12.432617 73.7871094,12.4658203 C73.810547,12.4990236 73.8261718,12.5195312 73.8339844,12.5273438 L73.7753906,12.5566406 L73.7167969,12.4335938 Z M77.7324219,10.5234375 L79.203125,10.5234375 L79.203125,10.6582031 C79.160156,10.7050784 79.1328126,10.7568357 79.1210938,10.8134766 C79.1093749,10.8701175 79.1054687,10.9648431 79.109375,11.0976562 L79.109375,16.8691406 L82.5078125,16.8691406 L82.5078125,18 L77.7324219,18 L77.7324219,10.5234375 Z M85.6738281,18 L85.6738281,10.5234375 L90.5429688,10.5234375 L90.5429688,11.6777344 L86.9804688,11.6777344 L86.9804688,13.5234375 L89.9335938,13.5234375 L89.9335938,14.7011719 L86.9804688,14.7011719 L86.9804688,16.8457031 L90.5195312,16.8457031 L90.5195312,18 L85.6738281,18 Z M96.5625,13.6699219 C97.070315,13.9121106 97.4648423,14.1455067 97.7460938,14.3701172 C98.0273452,14.5947277 98.2265619,14.8300769 98.34375,15.0761719 C98.4609381,15.3222669 98.5195312,15.6093734 98.5195312,15.9375 C98.5195312,16.3359395 98.4277353,16.7080061 98.2441406,17.0537109 C98.060546,17.3994158 97.7705098,17.6796864 97.3740234,17.8945312 C96.9775371,18.1093761 96.4746124,18.2167969 95.8652344,18.2167969 C94.8925733,18.2167969 94.0488317,17.8691441 93.3339844,17.1738281 L93.9199219,16.1542969 L93.9257812,16.1425781 L93.9375,16.1542969 C94.5195342,16.7597687 95.1992149,17.0625 95.9765625,17.0625 C96.3515644,17.0625 96.6416005,16.9746103 96.8466797,16.7988281 C97.0517588,16.623046 97.1542969,16.3593768 97.1542969,16.0078125 C97.1542969,15.8320304 97.110352,15.6728523 97.0224609,15.5302734 C96.9345699,15.3876946 96.7841808,15.2441413 96.5712891,15.0996094 C96.3583974,14.9550774 96.064455,14.798829 95.6894531,14.6308594 C94.9941371,14.3300766 94.4902359,13.9921894 94.1777344,13.6171875 C93.8652328,13.2421856 93.7089844,12.8066431 93.7089844,12.3105469 C93.7089844,11.9511701 93.8095693,11.6201187 94.0107422,11.3173828 C94.2119151,11.0146469 94.489256,10.774415 94.8427734,10.5966797 C95.1962908,10.4189444 95.5937478,10.3300781 96.0351562,10.3300781 C96.5312525,10.3300781 96.9589826,10.4121086 97.3183594,10.5761719 C97.6777362,10.7402352 98.0214827,10.9941389 98.3496094,11.3378906 L97.6757812,12.2753906 L97.6699219,12.2871094 C97.6660156,12.2871094 97.6640625,12.2861328 97.6640625,12.2841797 L97.6640625,12.28125 C97.4804678,11.9882798 97.2460952,11.7744147 96.9609375,11.6396484 C96.6757798,11.5048821 96.3632829,11.4375 96.0234375,11.4375 C95.8046864,11.4375 95.6162117,11.4755856 95.4580078,11.5517578 C95.2998039,11.6279301 95.1806645,11.728515 95.1005859,11.8535156 C95.0205074,11.9785163 94.9804688,12.1152336 94.9804688,12.2636719 C94.9804688,12.439454 95.0263667,12.5947259 95.1181641,12.7294922 C95.2099614,12.8642585 95.3671864,13.002929 95.5898438,13.1455078 C95.8125011,13.2880867 96.1367166,13.4628896 96.5625,13.6699219 Z M97.5058594,12.2695312 C97.5058594,12.2617187 97.5097656,12.2578125 97.5175781,12.2578125 C97.5253907,12.2578125 97.5419921,12.267578 97.5673828,12.2871094 C97.5927736,12.3066407 97.6152343,12.3222656 97.6347656,12.3339844 L97.6171875,12.3632812 L97.5058594,12.2871094 L97.5058594,12.2695312 Z M94.0957031,16.1484375 C94.0957031,16.15625 94.0917969,16.1601562 94.0839844,16.1601562 C94.0722656,16.1601562 94.051758,16.1523438 94.0224609,16.1367188 C93.9931639,16.1210937 93.9687501,16.109375 93.9492188,16.1015625 L93.9726562,16.0605469 L94.0898438,16.1308594 L94.0957031,16.1484375 Z"/>
    <g fill="#FFF" transform="translate(7 7)">
      <circle cx="2.5" cy="2.5" r="2.5"/>
      <circle cx="2.5" cy="12.5" r="2.5"/>
    </g>
  </g>
</svg>
