<svg xmlns="http://www.w3.org/2000/svg" width="165" height="29" viewBox="0 0 165 29">
  <g fill="none" fill-rule="evenodd">
    <rect width="165" height="29" fill="#4EDACB"/>
    <path fill="#FFF" fill-rule="nonzero" d="M37.6738281,18 L37.6738281,10.5234375 L42.5429688,10.5234375 L42.5429688,11.6777344 L38.9804688,11.6777344 L38.9804688,13.5234375 L41.9335938,13.5234375 L41.9335938,14.7011719 L38.9804688,14.7011719 L38.9804688,16.8457031 L42.5195312,16.8457031 L42.5195312,18 L37.6738281,18 Z M45.4804688,10.5234375 L47.7480469,10.5234375 C48.6230513,10.5234375 49.2773416,10.6962873 49.7109375,11.0419922 C50.1445334,11.387697 50.3613281,11.859372 50.3613281,12.4570312 C50.3613281,12.757814 50.2792977,13.0507798 50.1152344,13.3359375 C49.9511711,13.6210952 49.7304701,13.839843 49.453125,13.9921875 C49.6835949,14.101563 49.8896475,14.2529287 50.0712891,14.4462891 C50.2529306,14.6396494 50.3955073,14.854491 50.4990234,15.0908203 C50.6025396,15.3271496 50.6542969,15.5644519 50.6542969,15.8027344 C50.6542969,16.4863315 50.4111352,17.0234355 49.9248047,17.4140625 C49.4384741,17.8046895 48.7089892,18 47.7363281,18 L45.4804688,18 L45.4804688,10.5234375 Z M47.6425781,13.4414062 C48.1230493,13.4414062 48.4707021,13.3593758 48.6855469,13.1953125 C48.9003917,13.0312492 49.0078125,12.8085952 49.0078125,12.5273438 C49.0078125,12.3671867 48.9619145,12.2197272 48.8701172,12.0849609 C48.7783199,11.9501946 48.6386728,11.8427738 48.4511719,11.7626953 C48.2636709,11.6826168 48.0332045,11.6425781 47.7597656,11.6425781 L46.8222656,11.6425781 L46.8222656,13.4414062 L47.6425781,13.4414062 Z M47.8652344,16.8574219 C48.3144554,16.8574219 48.6572254,16.7744149 48.8935547,16.6083984 C49.129884,16.442382 49.2480469,16.1621113 49.2480469,15.7675781 C49.2480469,15.3925763 49.1220716,15.0927746 48.8701172,14.8681641 C48.6181628,14.6435536 48.2207058,14.53125 47.6777344,14.53125 L46.8222656,14.53125 L46.8222656,16.8574219 L47.8652344,16.8574219 Z M56.0351562,18.2167969 C55.4453096,18.2167969 54.9384787,18.0595719 54.5146484,17.7451172 C54.0908182,17.4306625 53.7666027,16.9755889 53.5419922,16.3798828 C53.3173817,15.7841767 53.2050781,15.0722698 53.2050781,14.2441406 C53.2050781,13.4277303 53.3173817,12.7265654 53.5419922,12.140625 C53.7666027,11.5546846 54.0908182,11.1064469 54.5146484,10.7958984 C54.9384787,10.48535 55.4453096,10.3300781 56.0351562,10.3300781 C56.6250029,10.3300781 57.1318338,10.48535 57.5556641,10.7958984 C57.9794943,11.1064469 58.3037098,11.5546846 58.5283203,12.140625 C58.7529308,12.7265654 58.8652344,13.4277303 58.8652344,14.2441406 C58.8652344,15.0722698 58.7529308,15.7841767 58.5283203,16.3798828 C58.3037098,16.9755889 57.9794943,17.4306625 57.5556641,17.7451172 C57.1318338,18.0595719 56.6250029,18.2167969 56.0351562,18.2167969 Z M56.0351562,17.1386719 C56.3320327,17.1386719 56.5888661,17.0166028 56.8056641,16.7724609 C57.022462,16.5283191 57.188476,16.1826194 57.3037109,15.7353516 C57.4189459,15.2880837 57.4765625,14.7675811 57.4765625,14.1738281 C57.4765625,13.6230441 57.4189459,13.1396505 57.3037109,12.7236328 C57.188476,12.3076151 57.022462,11.9853527 56.8056641,11.7568359 C56.5888661,11.5283192 56.3320327,11.4140625 56.0351562,11.4140625 C55.742186,11.4140625 55.4863292,11.5283192 55.2675781,11.7568359 C55.048827,11.9853527 54.8818365,12.3076151 54.7666016,12.7236328 C54.6513666,13.1396505 54.59375,13.6230441 54.59375,14.1738281 C54.59375,14.7675811 54.6513666,15.2880837 54.7666016,15.7353516 C54.8818365,16.1826194 55.0478505,16.5283191 55.2646484,16.7724609 C55.4814464,17.0166028 55.7382798,17.1386719 56.0351562,17.1386719 Z M64.0351562,18.2167969 C63.4453096,18.2167969 62.9384787,18.0595719 62.5146484,17.7451172 C62.0908182,17.4306625 61.7666027,16.9755889 61.5419922,16.3798828 C61.3173817,15.7841767 61.2050781,15.0722698 61.2050781,14.2441406 C61.2050781,13.4277303 61.3173817,12.7265654 61.5419922,12.140625 C61.7666027,11.5546846 62.0908182,11.1064469 62.5146484,10.7958984 C62.9384787,10.48535 63.4453096,10.3300781 64.0351562,10.3300781 C64.6250029,10.3300781 65.1318338,10.48535 65.5556641,10.7958984 C65.9794943,11.1064469 66.3037098,11.5546846 66.5283203,12.140625 C66.7529308,12.7265654 66.8652344,13.4277303 66.8652344,14.2441406 C66.8652344,15.0722698 66.7529308,15.7841767 66.5283203,16.3798828 C66.3037098,16.9755889 65.9794943,17.4306625 65.5556641,17.7451172 C65.1318338,18.0595719 64.6250029,18.2167969 64.0351562,18.2167969 Z M64.0351562,17.1386719 C64.3320327,17.1386719 64.5888661,17.0166028 64.8056641,16.7724609 C65.022462,16.5283191 65.188476,16.1826194 65.3037109,15.7353516 C65.4189459,15.2880837 65.4765625,14.7675811 65.4765625,14.1738281 C65.4765625,13.6230441 65.4189459,13.1396505 65.3037109,12.7236328 C65.188476,12.3076151 65.022462,11.9853527 64.8056641,11.7568359 C64.5888661,11.5283192 64.3320327,11.4140625 64.0351562,11.4140625 C63.742186,11.4140625 63.4863292,11.5283192 63.2675781,11.7568359 C63.048827,11.9853527 62.8818365,12.3076151 62.7666016,12.7236328 C62.6513666,13.1396505 62.59375,13.6230441 62.59375,14.1738281 C62.59375,14.7675811 62.6513666,15.2880837 62.7666016,15.7353516 C62.8818365,16.1826194 63.0478505,16.5283191 63.2646484,16.7724609 C63.4814464,17.0166028 63.7382798,17.1386719 64.0351562,17.1386719 Z M71.2207031,14.5898438 L70.8984375,14.9414062 L70.8984375,18 L69.515625,18 L69.515625,10.5234375 L70.9921875,10.5234375 L70.9921875,10.6582031 C70.9492185,10.7050784 70.9218751,10.7568357 70.9101562,10.8134766 C70.8984374,10.8701175 70.8945312,10.9648431 70.8984375,11.0976562 L70.8984375,13.3828125 L73.4414062,10.4296875 C73.7226577,10.4921878 73.9550772,10.5234375 74.1386719,10.5234375 L74.9648438,10.5234375 L72.1816406,13.7050781 L75.0703125,17.9882812 L73.4414062,18.0585938 L71.2207031,14.5898438 Z"/>
    <g fill="#FFF" transform="translate(7 7)">
      <circle cx="2.5" cy="2.5" r="2.5"/>
      <circle cx="2.5" cy="12.5" r="2.5"/>
    </g>
  </g>
</svg>
