<svg xmlns="http://www.w3.org/2000/svg" width="165" height="29" viewBox="0 0 165 29">
  <g fill="none" fill-rule="evenodd">
    <rect width="165" height="29" fill="#638E89"/>
    <path fill="#FFF" d="M40.5625,13.6699219 C41.070315,13.9121106 41.4648423,14.1455067 41.7460938,14.3701172 C42.0273452,14.5947277 42.2265619,14.8300769 42.34375,15.0761719 C42.4609381,15.3222669 42.5195312,15.6093734 42.5195312,15.9375 C42.5195312,16.3359395 42.4277353,16.7080061 42.2441406,17.0537109 C42.060546,17.3994158 41.7705098,17.6796864 41.3740234,17.8945312 C40.9775371,18.1093761 40.4746124,18.2167969 39.8652344,18.2167969 C38.8925733,18.2167969 38.0488317,17.8691441 37.3339844,17.1738281 L37.9199219,16.1542969 L37.9257812,16.1425781 L37.9375,16.1542969 C38.5195342,16.7597687 39.1992149,17.0625 39.9765625,17.0625 C40.3515644,17.0625 40.6416005,16.9746103 40.8466797,16.7988281 C41.0517588,16.623046 41.1542969,16.3593768 41.1542969,16.0078125 C41.1542969,15.8320304 41.110352,15.6728523 41.0224609,15.5302734 C40.9345699,15.3876946 40.7841808,15.2441413 40.5712891,15.0996094 C40.3583974,14.9550774 40.064455,14.798829 39.6894531,14.6308594 C38.9941371,14.3300766 38.4902359,13.9921894 38.1777344,13.6171875 C37.8652328,13.2421856 37.7089844,12.8066431 37.7089844,12.3105469 C37.7089844,11.9511701 37.8095693,11.6201187 38.0107422,11.3173828 C38.2119151,11.0146469 38.489256,10.774415 38.8427734,10.5966797 C39.1962908,10.4189444 39.5937478,10.3300781 40.0351562,10.3300781 C40.5312525,10.3300781 40.9589826,10.4121086 41.3183594,10.5761719 C41.6777362,10.7402352 42.0214827,10.9941389 42.3496094,11.3378906 L41.6757812,12.2753906 L41.6699219,12.2871094 C41.6660156,12.2871094 41.6640625,12.2861328 41.6640625,12.2841797 L41.6640625,12.28125 C41.4804678,11.9882798 41.2460952,11.7744147 40.9609375,11.6396484 C40.6757798,11.5048821 40.3632829,11.4375 40.0234375,11.4375 C39.8046864,11.4375 39.6162117,11.4755856 39.4580078,11.5517578 C39.2998039,11.6279301 39.1806645,11.728515 39.1005859,11.8535156 C39.0205074,11.9785163 38.9804688,12.1152336 38.9804688,12.2636719 C38.9804688,12.439454 39.0263667,12.5947259 39.1181641,12.7294922 C39.2099614,12.8642585 39.3671864,13.002929 39.5898438,13.1455078 C39.8125011,13.2880867 40.1367166,13.4628896 40.5625,13.6699219 Z M41.5058594,12.2695312 C41.5058594,12.2617187 41.5097656,12.2578125 41.5175781,12.2578125 C41.5253907,12.2578125 41.5419921,12.267578 41.5673828,12.2871094 C41.5927736,12.3066407 41.6152343,12.3222656 41.6347656,12.3339844 L41.6171875,12.3632812 L41.5058594,12.2871094 L41.5058594,12.2695312 Z M38.0957031,16.1484375 C38.0957031,16.15625 38.0917969,16.1601562 38.0839844,16.1601562 C38.0722656,16.1601562 38.051758,16.1523438 38.0224609,16.1367188 C37.9931639,16.1210937 37.9687501,16.109375 37.9492188,16.1015625 L37.9726562,16.0605469 L38.0898438,16.1308594 L38.0957031,16.1484375 Z M49.4882809,18 L48.9550778,16.0664062 L47.0449215,16.0664062 L46.4999996,18 L45.1171871,18 L47.6132809,10.5234375 L48.3984371,10.5234375 L50.8945309,18 L49.4882809,18 Z M47.3085934,15.1347656 L48.6972653,15.1347656 L48.0117184,12.6503906 L47.3085934,15.1347656 Z M53.3574212,18 L53.3574212,10.5234375 L54.7753899,10.5234375 L56.0351555,14.0390625 L57.2832024,10.5117188 L58.7128899,10.5117188 L58.7128899,18 L57.4999993,18 L57.4999993,12.5742188 L56.4570305,15.3984375 L55.5664055,15.3984375 L54.558593,12.5742188 L54.558593,18 L53.3574212,18 Z M61.5976552,10.5234375 L64.1347646,10.5234375 C64.7050799,10.5234375 65.1777314,10.6230459 65.5527333,10.8222656 C65.9277352,11.0214854 66.2050762,11.2900374 66.3847646,11.6279297 C66.564453,11.965822 66.6542958,12.345701 66.6542958,12.7675781 C66.6542958,13.1894552 66.5664061,13.5664046 66.3906239,13.8984375 C66.2148418,14.2304704 65.9433601,14.4931631 65.5761708,14.6865234 C65.2089815,14.8798838 64.7480486,14.9765625 64.1933583,14.9765625 L62.9687489,14.9765625 L62.9687489,18 L61.5976552,18 L61.5976552,10.5234375 Z M64.0937489,13.8339844 C64.4921884,13.8339844 64.7880839,13.7402353 64.9814442,13.5527344 C65.1748046,13.3652334 65.2714833,13.1152359 65.2714833,12.8027344 C65.2714833,12.4746077 65.1728515,12.2109385 64.9755849,12.0117188 C64.7783183,11.812499 64.4882821,11.7128906 64.1054677,11.7128906 L62.9687489,11.7128906 L62.9687489,13.8339844 L64.0937489,13.8339844 Z M69.7324204,10.5234375 L71.2031236,10.5234375 L71.2031236,10.6582031 C71.1601546,10.7050784 71.1328111,10.7568357 71.1210923,10.8134766 C71.1093735,10.8701175 71.1054673,10.9648431 71.1093736,11.0976562 L71.1093736,16.8691406 L74.5078111,16.8691406 L74.5078111,18 L69.7324204,18 L69.7324204,10.5234375 Z M77.6738263,18 L77.6738263,10.5234375 L82.542967,10.5234375 L82.542967,11.6777344 L78.980467,11.6777344 L78.980467,13.5234375 L81.933592,13.5234375 L81.933592,14.7011719 L78.980467,14.7011719 L78.980467,16.8457031 L82.5195295,16.8457031 L82.5195295,18 L77.6738263,18 Z M96.3867162,17.1386719 C96.8945313,17.1386719 97.3456986,16.789066 97.7402319,16.0898438 L98.7597631,16.7519531 C98.4785117,17.2324243 98.1308589,17.5966784 97.7167944,17.8447266 C97.3027298,18.0927747 96.8300783,18.2167969 96.2988256,18.2167969 C95.7363228,18.2167969 95.2324216,18.0722671 94.7871069,17.7832031 C94.3417921,17.4941392 93.9902332,17.055667 93.7324194,16.4677734 C93.4746056,15.8798799 93.3457006,15.1582074 93.3457006,14.3027344 C93.3457006,13.3769485 93.4951132,12.6171905 93.7939428,12.0234375 C94.0927724,11.4296845 94.473628,10.9990248 94.9365209,10.7314453 C95.3994139,10.4638658 95.8906199,10.3300781 96.4101537,10.3300781 C96.9765628,10.3300781 97.4667923,10.4804672 97.8808569,10.78125 C98.2949214,11.0820328 98.6152307,11.4999973 98.8417944,12.0351562 L97.8691381,12.5097656 L97.8574194,12.515625 L97.8574194,12.5097656 C97.7089811,12.0996073 97.5117175,11.8144539 97.2656225,11.6542969 C97.0195275,11.4941398 96.7460928,11.4140625 96.44531,11.4140625 C95.8671821,11.4140625 95.4384755,11.66406 95.1591772,12.1640625 C94.8798789,12.664065 94.7402319,13.3574174 94.7402319,14.2441406 C94.7402319,14.7871121 94.8095671,15.2783181 94.9482397,15.7177734 C95.0869123,16.1572288 95.2822228,16.503905 95.5341772,16.7578125 C95.7861316,17.01172 96.0703084,17.1386719 96.3867162,17.1386719 Z M97.7167944,12.4335938 C97.7167944,12.4218749 97.7226537,12.4160156 97.7343725,12.4160156 C97.7460913,12.4160156 97.7636693,12.432617 97.7871069,12.4658203 C97.8105445,12.4990236 97.8261693,12.5195312 97.8339819,12.5273438 L97.7753881,12.5566406 L97.7167944,12.4335938 Z M101.515622,10.5234375 L102.992185,10.5234375 L102.992185,10.6582031 C102.949216,10.7050784 102.921872,10.7568357 102.910153,10.8134766 C102.898435,10.8701175 102.894528,10.9648431 102.898435,11.0976562 L102.898435,13.5585938 L105.10156,13.5585938 L105.10156,10.5234375 L106.578122,10.5234375 L106.578122,10.6582031 C106.535153,10.7050784 106.50781,10.7568357 106.496091,10.8134766 C106.484372,10.8701175 106.480466,10.9648431 106.484372,11.0976562 L106.484372,18 L105.10156,18 L105.10156,14.6777344 L102.898435,14.6777344 L102.898435,18 L101.515622,18 L101.515622,10.5234375 Z M113.488278,18 L112.955075,16.0664062 L111.044919,16.0664062 L110.499997,18 L109.117184,18 L111.613278,10.5234375 L112.398434,10.5234375 L114.894528,18 L113.488278,18 Z M111.308591,15.1347656 L112.697262,15.1347656 L112.011716,12.6503906 L111.308591,15.1347656 Z M117.597653,10.5234375 L120.134762,10.5234375 C120.705077,10.5234375 121.177729,10.6230459 121.552731,10.8222656 C121.927733,11.0214854 122.205074,11.2900374 122.384762,11.6279297 C122.56445,11.965822 122.654293,12.345701 122.654293,12.7675781 C122.654293,13.1894552 122.566404,13.5664046 122.390621,13.8984375 C122.214839,14.2304704 121.943358,14.4931631 121.576168,14.6865234 C121.208979,14.8798838 120.748046,14.9765625 120.193356,14.9765625 L118.968746,14.9765625 L118.968746,18 L117.597653,18 L117.597653,10.5234375 Z M120.093746,13.8339844 C120.492186,13.8339844 120.788081,13.7402353 120.981442,13.5527344 C121.174802,13.3652334 121.271481,13.1152359 121.271481,12.8027344 C121.271481,12.4746077 121.172849,12.2109385 120.975582,12.0117188 C120.778316,11.812499 120.48828,11.7128906 120.105465,11.7128906 L118.968746,11.7128906 L118.968746,13.8339844 L120.093746,13.8339844 Z M127.267574,18 L127.267574,11.6894531 L125.24023,11.6894531 L125.24023,10.5234375 L130.748043,10.5234375 L130.748043,11.6894531 L128.638668,11.6894531 L128.638668,18 L127.267574,18 Z M133.673824,18 L133.673824,10.5234375 L138.542964,10.5234375 L138.542964,11.6777344 L134.980464,11.6777344 L134.980464,13.5234375 L137.933589,13.5234375 L137.933589,14.7011719 L134.980464,14.7011719 L134.980464,16.8457031 L138.519527,16.8457031 L138.519527,18 L133.673824,18 Z M141.562495,10.5234375 L143.929683,10.5234375 C144.824219,10.5234375 145.483392,10.7197246 145.907222,11.1123047 C146.331052,11.5048848 146.542964,12.0527309 146.542964,12.7558594 C146.542964,13.0292982 146.483394,13.302733 146.364253,13.5761719 C146.245112,13.8496107 146.077145,14.0908193 145.860347,14.2998047 C145.643549,14.5087901 145.394528,14.6582027 145.113277,14.7480469 L146.86523,18 L145.353511,18 L143.806636,14.90625 L142.933589,14.90625 L142.933589,18 L141.562495,18 L141.562495,10.5234375 Z M144.011714,13.7636719 C144.398435,13.7636719 144.687494,13.673829 144.878902,13.4941406 C145.070309,13.3144522 145.166011,13.0683609 145.166011,12.7558594 C145.166011,12.4042951 145.073238,12.142579 144.887691,11.9707031 C144.702143,11.7988273 144.410154,11.7128906 144.011714,11.7128906 L142.933589,11.7128906 L142.933589,13.7636719 L144.011714,13.7636719 Z"/>
    <g fill="#FFF" transform="translate(7 7)">
      <circle cx="2.5" cy="2.5" r="2.5"/>
      <circle cx="2.5" cy="12.5" r="2.5"/>
    </g>
  </g>
</svg>
