<svg xmlns="http://www.w3.org/2000/svg" width="572" height="372"><g fill="none" fill-rule="evenodd"><path fill="#FFF" d="M0 0h572v372H0z"/><path fill="#26B4A5" fill-opacity=".2" d="M32 194h224v160H32z"/><path fill="#26B4A5" d="M48.3 259v-2.55h.875c.475 0 .6-.175.6-.9v-9.725c0-.7-.125-.875-.6-.875H48.3v-2.55h8.125v2.55h-.775c-.45 0-.6.175-.6.875v3.55h4.9v-3.55c0-.7-.125-.875-.575-.875h-.8v-2.55H66.7v2.55h-.875c-.45 0-.6.175-.6.875v9.725c0 .725.15.9.6.9h.875V259h-8.125v-2.55h.8c.45 0 .575-.175.575-.9v-3.775h-4.9v3.775c0 .725.15.9.6.9h.775V259H48.3zm24.95-10.15c-.4 0-.725.05-.975.1.1.3.175.6.175.95 0 1.175-.975 2.05-2.3 2.05-1.55 0-2.425-.775-2.425-2.2 0-2.225 2.25-3.35 6.275-3.35 4.4 0 6.025 1.15 6.025 4.325v4.95c0 .575.125.775.475.775h.65V259H76.3c-.575-.55-.825-1.025-1.1-1.875-.6 1.275-2.275 2.225-4.075 2.225-2.375 0-3.775-1.4-3.775-3.3 0-3.45 4.25-4 7.8-4.625v-.675c0-1.3-.525-1.9-1.9-1.9zm-.1 7.75c1.325 0 2-1 2-2.45v-.9c-1.725.275-3.25.675-3.25 2.1 0 .75.525 1.25 1.25 1.25zm17.975 2.75c-2.35 0-3.7-1.15-4.3-2.9l-.35 2.55h-3.9c.025-.2.05-1.075.05-4.15v-9c0-.7-.125-.9-.5-.9h-.75v-2.55h3c1.35 0 2.5-.15 3.125-.3v6.55c.675-1.425 1.9-2.25 3.85-2.25 3.175 0 5.125 2.575 5.125 6.475 0 3.9-2.1 6.475-5.35 6.475zm-1.675-2.925c1.2 0 1.95-.95 1.95-3.325v-.45c0-2.375-.75-3.325-1.95-3.325s-1.95.925-1.95 3.325v.45c0 2.375.75 3.325 1.95 3.325zm11.1-10.4c-1.55 0-2.575-.95-2.575-2.3 0-1.35 1.025-2.3 2.575-2.3 1.55 0 2.575.95 2.575 2.3 0 1.35-1.025 2.3-2.575 2.3zM96.975 259v-2.55h.675c.35 0 .475-.175.475-.775V250.3c0-.75-.125-1-.55-1h-.6v-2.55H99.9c1.35 0 2.475-.15 3.125-.3v9.225c0 .6.125.775.475.775h.625V259h-7.15zm13.025.35c-3.225 0-4.45-1.225-4.45-4.375V249.3h-1.4v-2.275l.575-.075c1.125-.25 1.85-.7 2.075-1.875l.3-1.95h3.275v3.625h2.05v2.55H110.3v5.7c0 1.175.45 1.525 1.325 1.525.425 0 .725-.1.975-.175V259c-.625.175-1.6.35-2.6.35zm3.575-.975v-3.15h3.175v1.675c.475.125 1.025.175 1.675.175 1 0 1.625-.35 1.625-1.1 0-.85-.925-1.05-2.475-1.375-1.925-.45-4.175-1.175-4.175-3.875 0-2.675 2.025-4.325 5.675-4.325 2.1 0 3.875.525 4.825.975v3.05h-3.025V248.9c-.35-.125-.975-.225-1.5-.225-.975 0-1.55.4-1.55 1.05 0 .875.975.975 2.4 1.3 1.9.45 4.25 1.175 4.25 3.95 0 2.75-2 4.375-5.725 4.375-2.25 0-4.075-.575-5.175-.975zm23.85.925c-3.7 0-6.2-2.575-6.2-6.375 0-3.75 2.55-6.35 6.3-6.35 3.65 0 6.15 2.575 6.15 6.35 0 3.775-2.525 6.375-6.25 6.375zm.025-1.525c2.475 0 3.85-1.7 3.85-4.725v-.225c0-3.075-1.375-4.725-3.825-4.725-2.475 0-3.85 1.675-3.85 4.725v.225c0 3.05 1.35 4.725 3.825 4.725zm6.7-9.45v-1.45h1.75V245.6c0-2.625 1.025-3.65 3.375-3.65.875 0 1.6.225 1.925.425v1.45c-.3-.175-.775-.3-1.3-.3-1.275 0-1.75.5-1.7 2.375v.975h2.425v1.45h-2.4v8.65c0 .5.125.575.375.575h1.575V259h-5.95v-1.45h1.3c.25 0 .375-.075.375-.575v-8.65h-1.75zm18.15 10.95c-2.4 0-3.375-.975-3.375-3.45v-7.5H157.1v-1.3l1.2-.075c.675-.1 1.025-.325 1.1-1.05l.225-2.2h1.675v3.175h2.675v1.45h-2.75v7.475c0 1.375.525 1.9 1.7 1.9.6 0 .95-.125 1.275-.225v1.5c-.375.125-1.075.3-1.9.3zm6.625-17.1v7.2c.825-1.85 2.3-2.8 4.25-2.8 2.55 0 3.85 1.425 3.85 4.275v6.125c0 .5.125.575.375.575h1.4V259H173v-1.45h1.275c.25 0 .375-.075.375-.575v-6.025c0-1.85-.7-2.7-2.35-2.7-2.05 0-3.375 1.775-3.375 4.95v3.775c0 .5.125.575.35.575h1.35V259h-5.85v-1.45h1.4c.25 0 .375-.075.375-.575v-12.45c0-.525-.1-.675-.375-.675h-1.45v-1.45h1.425c1.125 0 2.25-.125 2.775-.225zm22.425 11.175h-9.45c.05 2.575 1.45 4.425 4.075 4.425 2.1 0 3.275-1.075 3.825-2.825l1.45.6c-.6 2.125-2.325 3.75-5.45 3.75-4.05 0-6.325-2.675-6.325-6.375 0-3.725 2.5-6.35 6.15-6.35 3.6 0 5.725 2.375 5.725 6.175v.6zm-5.725-5.3c-2.225 0-3.55 1.425-3.725 3.975h7.075c-.05-2.65-1.2-3.975-3.35-3.975zM48.275 288.3v-1.45h1.4c.25 0 .375-.075.375-.575V274c0-.525-.1-.675-.375-.675h-1.45v-1.45H49.6c1.15 0 2.275-.125 2.775-.225v2.9c.775-1.85 2.325-2.975 4.525-2.975 3.35 0 5.475 2.5 5.475 6.35 0 3.85-2.2 6.375-5.55 6.375-2.15 0-3.625-1.1-4.4-2.8v4.775c0 .5.125.575.35.575H54.2v1.45h-5.925zm7.875-5.675c2.275 0 3.775-1.575 3.775-4.525v-.325c0-2.95-1.5-4.55-3.775-4.55-2.2 0-3.725 1.625-3.725 4.55v.325c0 2.9 1.55 4.525 3.725 4.525zM67.5 271.65v2.825c.625-2.075 1.925-2.9 3.35-2.9 1.725 0 2.7 1.1 2.7 2.625 0 1.275-.725 2.1-1.8 2.1-.725 0-1.325-.6-1.325-1.3 0-.6.425-1.15 1.05-1.3-.125-.25-.475-.55-1.1-.55-1.9 0-2.825 1.9-2.825 4.75v4.075c0 .5.125.575.35.575h1.525V284H63.4v-1.45h1.4c.25 0 .375-.075.375-.575V274c0-.525-.1-.675-.375-.675h-1.45v-1.45h1.35c1.15 0 2.275-.125 2.8-.225zm18.35 6.7H76.4c.05 2.575 1.45 4.425 4.075 4.425 2.1 0 3.275-1.075 3.825-2.825l1.45.6c-.6 2.125-2.325 3.75-5.45 3.75-4.05 0-6.325-2.675-6.325-6.375 0-3.725 2.5-6.35 6.15-6.35 3.6 0 5.725 2.375 5.725 6.175v.6zm-5.725-5.3c-2.225 0-3.55 1.425-3.725 3.975h7.075c-.05-2.65-1.2-3.975-3.35-3.975zm7.05 10.175v-3.15h1.85v2.35c.6.275 1.55.475 2.7.475 1.75 0 2.825-.65 2.825-1.975 0-1.425-1.375-1.775-3.15-2.125-2.1-.4-4.225-1.025-4.225-3.5 0-2.225 1.8-3.725 4.9-3.725 1.7 0 3.325.5 4.3 1.025v3.125h-1.85V273.5c-.5-.3-1.4-.525-2.4-.525-1.75 0-2.75.7-2.75 1.9 0 1.475 1.425 1.675 3.15 2 2.2.425 4.225 1.125 4.225 3.6 0 2.3-1.825 3.825-5 3.825-1.75 0-3.425-.5-4.575-1.075zm22.725-4.875h-9.45c.05 2.575 1.45 4.425 4.075 4.425 2.1 0 3.275-1.075 3.825-2.825l1.45.6c-.6 2.125-2.325 3.75-5.45 3.75-4.05 0-6.325-2.675-6.325-6.375 0-3.725 2.5-6.35 6.15-6.35 3.6 0 5.725 2.375 5.725 6.175v.6zm-5.725-5.3c-2.225 0-3.55 1.425-3.725 3.975h7.075c-.05-2.65-1.2-3.975-3.35-3.975zm10.85-1.4v2.825c.8-1.9 2.3-2.9 4.275-2.9 2.55 0 3.85 1.45 3.85 4.325v6.075c0 .5.125.575.375.575h1.4V284h-5.8v-1.45h1.3c.225 0 .35-.075.35-.575v-6c0-1.875-.7-2.725-2.35-2.725-2.05 0-3.375 1.725-3.375 4.925v3.8c0 .5.125.575.375.575h1.325V284h-5.85v-1.45h1.4c.25 0 .375-.075.375-.575V274c0-.525-.1-.675-.375-.675h-1.4v-1.45h1.35c1.125 0 2.25-.125 2.775-.225zM130 284.275c-2.4 0-3.375-.975-3.375-3.45v-7.5H124.8v-1.3l1.2-.075c.675-.1 1.025-.325 1.1-1.05l.225-2.2H129v3.175h2.675v1.45h-2.75v7.475c0 1.375.525 1.9 1.7 1.9.6 0 .95-.125 1.275-.225v1.5c-.375.125-1.075.3-1.9.3z"/><path fill="#35C3B4" fill-opacity=".3" d="M83.87 354H32v-55.067A38.823 38.823 0 0 1 51 294c21.54 0 39 17.46 39 39 0 7.732-2.25 14.938-6.13 21z"/><path fill="#26B4A5" d="M62.4 337l4.5 4.5-4.95 4.95L46 330.5l15.95-15.95 4.95 4.95-4.5 4.5h136.55v13H62.4zm-6.45-6.45v-.1l-.05.05.05.05z"/><path fill="#26B4A5" d="M49.275 225.6v-2.725l6.675-9.475h6.4l-10.025 9.45h4.6v-2.475c2.625 0 4.775-2.775 4.775-2.775v5.25h2.4v2.75h-2.4v.95c0 .725.125.9.6.9h.9V230h-7.8v-2.55h.825c.45 0 .6-.175.6-.9v-.95h-7.55zm18.575 4.75c-1.65 0-2.725-1.05-2.725-2.625 0-1.55 1.075-2.625 2.725-2.625 1.625 0 2.725 1.075 2.725 2.625 0 1.575-1.1 2.625-2.725 2.625z"/><path fill="#26B4A5" fill-opacity=".2" d="M273 194h224v160H273z"/><path fill="#35C3B4" fill-opacity=".3" d="M497 298.933V354h-51.87a38.817 38.817 0 0 1-6.13-21c0-21.54 17.46-39 39-39 6.898 0 13.378 1.79 19 4.933z"/><path fill="#26B4A5" d="M346.4 337l4.5 4.5-4.95 4.95L330 330.5l15.95-15.95 4.95 4.95-4.5 4.5h136.55v13H346.4zm-6.45-6.45v-.1l-.05.05.05.05z"/><path fill="#26B4A5" d="M311.225 255.575l-.7-1.875h-4.65l-.65 1.875c-.225.7-.025.875.55.875h.675V259h-6.25v-2.55h.75c.575 0 .675-.175.95-.9l4.975-13.175h5.1l4.775 13.175c.25.7.5.9 1.025.9h.625V259H310v-2.55h.7c.55 0 .75-.2.525-.875zm-2.975-9.075l-1.675 4.85h3.325l-1.65-4.85zm16.475-.05v2.1c.75-1.45 2.125-2.15 4.025-2.15 2.65 0 4.025 1.55 4.025 4.9v4.375c0 .675.175.775.5.775h.65V259h-7.05v-2.55h.525c.325 0 .5-.1.5-.775v-4.3c0-1.425-.4-1.95-1.4-1.95-1.125 0-1.7.775-1.7 2.7v3.55c0 .675.175.775.5.775h.525V259h-7.05v-2.55h.65c.325 0 .5-.1.5-.775V250.2c0-.7-.125-.9-.5-.9h-.65v-2.55h2.875c1.325 0 2.45-.15 3.075-.3zM333.95 259v-2.55h.5c.45 0 .575-.2 1-.675l2.5-2.775-2.625-3.025c-.35-.4-.5-.675-.875-.675h-.4v-2.55h7.625v2.55h-.625c-.175 0-.525.2-.15.65l1.1 1.4 1.2-1.4c.25-.3.175-.65-.175-.65h-.525v-2.55h5.45v2.55h-.6c-.55 0-.625.2-1.025.675l-2.35 2.6 2.75 3.125c.3.375.475.75.875.75h.325V259h-7.65v-2.55h.675c.275 0 .575-.225.225-.65l-1.3-1.65-1.325 1.65c-.25.325-.175.65.175.65h.55V259h-5.325zm18.175-12.975c-1.55 0-2.575-.95-2.575-2.3 0-1.35 1.025-2.3 2.575-2.3 1.55 0 2.575.95 2.575 2.3 0 1.35-1.025 2.3-2.575 2.3zM348.55 259v-2.55h.675c.35 0 .475-.175.475-.775V250.3c0-.75-.125-1-.55-1h-.6v-2.55h2.925c1.35 0 2.475-.15 3.125-.3v9.225c0 .6.125.775.475.775h.625V259h-7.15zm20.8-5.225h-7.975c.075 1.825 1.125 2.675 2.825 2.675 1.525 0 2.325-.8 2.775-1.75l2.275 1.625c-.9 1.725-2.675 3.025-6.025 3.025-4.45 0-6.85-2.65-6.85-6.5 0-3.875 2.625-6.45 6.725-6.45 4.25 0 6.25 2.475 6.25 6.875v.5zm-6.225-4.85c-1.175 0-1.725.775-1.825 2.75h3.425c-.05-2.025-.525-2.75-1.6-2.75zm12.4 10.425c-3.225 0-4.45-1.225-4.45-4.375V249.3h-1.4v-2.275l.575-.075c1.125-.25 1.85-.7 2.075-1.875l.3-1.95h3.275v3.625h2.05v2.55h-2.125v5.7c0 1.175.45 1.525 1.325 1.525.425 0 .725-.1.975-.175V259c-.625.175-1.6.35-2.6.35zm6.975-13.325c-1.55 0-2.575-.95-2.575-2.3 0-1.35 1.025-2.3 2.575-2.3 1.55 0 2.575.95 2.575 2.3 0 1.35-1.025 2.3-2.575 2.3zM378.925 259v-2.55h.675c.35 0 .475-.175.475-.775V250.3c0-.75-.125-1-.55-1h-.6v-2.55h2.925c1.35 0 2.475-.15 3.125-.3v9.225c0 .6.125.775.475.775h.625V259h-7.15zm20.8-5.225h-7.975c.075 1.825 1.125 2.675 2.825 2.675 1.525 0 2.325-.8 2.775-1.75l2.275 1.625c-.9 1.725-2.675 3.025-6.025 3.025-4.45 0-6.85-2.65-6.85-6.5 0-3.875 2.625-6.45 6.725-6.45 4.25 0 6.25 2.475 6.25 6.875v.5zm-6.225-4.85c-1.175 0-1.725.775-1.825 2.75h3.425c-.05-2.025-.525-2.75-1.6-2.75zm7.05 9.45v-3.15h3.175v1.675c.475.125 1.025.175 1.675.175 1 0 1.625-.35 1.625-1.1 0-.85-.925-1.05-2.475-1.375-1.925-.45-4.175-1.175-4.175-3.875 0-2.675 2.025-4.325 5.675-4.325 2.1 0 3.875.525 4.825.975v3.05h-3.025V248.9c-.35-.125-.975-.225-1.5-.225-.975 0-1.55.4-1.55 1.05 0 .875.975.975 2.4 1.3 1.9.45 4.25 1.175 4.25 3.95 0 2.75-2 4.375-5.725 4.375-2.25 0-4.075-.575-5.175-.975zm23.15-10.325c-1.175 0-2 .225-2.525.65.4.25.65.7.65 1.275 0 .875-.65 1.45-1.5 1.45-.975 0-1.6-.625-1.6-1.675 0-2.125 2.45-3.175 5.325-3.175 3.475 0 5 1.225 5 4.175v6.225c0 .4.1.575.35.575h1.375V259h-3.55c-.25-.675-.375-1.35-.5-2.375-.675 1.575-2.5 2.675-4.575 2.675-2.275 0-3.725-1.375-3.725-3.2 0-2.875 2.825-4 8.25-4.65v-.675c0-1.925-.925-2.725-2.975-2.725zm-.725 9.675c2.225 0 3.7-1.65 3.7-4.05v-1c-3.95.45-5.95 1.15-5.95 3.05 0 1.2.9 2 2.25 2zM439.7 259.3c-2.325 0-4-1.175-4.8-3.075-.275 1.125-.675 2.55-.7 2.775h-1.425c.1-.7.15-1.9.15-4.15v-10.325c0-.525-.075-.675-.35-.675h-1.45v-1.45h1.35c1.125 0 2.325-.125 2.825-.225v7.275c.8-1.8 2.35-2.875 4.5-2.875 3.35 0 5.475 2.5 5.475 6.35 0 3.85-2.2 6.375-5.575 6.375zm-.65-1.625c2.275 0 3.775-1.625 3.775-4.575v-.325c0-2.95-1.5-4.575-3.775-4.575-2.2 0-3.75 1.65-3.75 4.575v.325c0 2.9 1.575 4.575 3.75 4.575zm13.625 1.625c-3.7 0-6.2-2.575-6.2-6.375 0-3.75 2.55-6.35 6.3-6.35 3.65 0 6.15 2.575 6.15 6.35 0 3.775-2.525 6.375-6.25 6.375zm.025-1.525c2.475 0 3.85-1.7 3.85-4.725v-.225c0-3.075-1.375-4.725-3.825-4.725-2.475 0-3.85 1.675-3.85 4.725v.225c0 3.05 1.35 4.725 3.825 4.725zM473.575 259h-1.4c-1.125 0-2.25.125-2.775.225V256.6c-.8 1.75-2.25 2.7-4.175 2.7-2.45 0-3.875-1.25-3.875-4.2v-6.2c0-.5-.125-.575-.35-.575h-1.425v-1.45h4.175v8.15c0 1.975.875 2.625 2.35 2.625 2.05 0 3.275-1.75 3.275-4.425V248.9c0-.5-.125-.575-.35-.575h-1.5v-1.45h4.225v10c0 .525.1.675.375.675h1.45V259zm5.075.275c-2.4 0-3.375-.975-3.375-3.45v-7.5h-1.825v-1.3l1.2-.075c.675-.1 1.025-.325 1.1-1.05l.225-2.2h1.675v3.175h2.675v1.45h-2.75v7.475c0 1.375.525 1.9 1.7 1.9.6 0 .95-.125 1.275-.225v1.5c-.375.125-1.075.3-1.9.3zm-120.75 25c-2.4 0-3.375-.975-3.375-3.45v-7.5H352.7v-1.3l1.2-.075c.675-.1 1.025-.325 1.1-1.05l.225-2.2h1.675v3.175h2.675v1.45h-2.75v7.475c0 1.375.525 1.9 1.7 1.9.6 0 .95-.125 1.275-.225v1.5c-.375.125-1.075.3-1.9.3zm6.625-17.1v7.2c.825-1.85 2.3-2.8 4.25-2.8 2.55 0 3.85 1.425 3.85 4.275v6.125c0 .5.125.575.375.575h1.4V284h-5.8v-1.45h1.275c.25 0 .375-.075.375-.575v-6.025c0-1.85-.7-2.7-2.35-2.7-2.05 0-3.375 1.775-3.375 4.95v3.775c0 .5.125.575.35.575h1.35V284h-5.85v-1.45h1.4c.25 0 .375-.075.375-.575v-12.45c0-.525-.1-.675-.375-.675h-1.45v-1.45h1.425c1.125 0 2.25-.125 2.775-.225zm22.425 11.175h-9.45c.05 2.575 1.45 4.425 4.075 4.425 2.1 0 3.275-1.075 3.825-2.825l1.45.6c-.6 2.125-2.325 3.75-5.45 3.75-4.05 0-6.325-2.675-6.325-6.375 0-3.725 2.5-6.35 6.15-6.35 3.6 0 5.725 2.375 5.725 6.175v.6zm-5.725-5.3c-2.225 0-3.55 1.425-3.725 3.975h7.075c-.05-2.65-1.2-3.975-3.35-3.975zm12.875 10.175v-3.15h1.85v2.35c.6.275 1.55.475 2.7.475 1.75 0 2.825-.65 2.825-1.975 0-1.425-1.375-1.775-3.15-2.125-2.1-.4-4.225-1.025-4.225-3.5 0-2.225 1.8-3.725 4.9-3.725 1.7 0 3.325.5 4.3 1.025v3.125h-1.85V273.5c-.5-.3-1.4-.525-2.4-.525-1.75 0-2.75.7-2.75 1.9 0 1.475 1.425 1.675 3.15 2 2.2.425 4.225 1.125 4.225 3.6 0 2.3-1.825 3.825-5 3.825-1.75 0-3.425-.5-4.575-1.075zm17.05 1.075c-3.7 0-6.2-2.575-6.2-6.375 0-3.75 2.55-6.35 6.3-6.35 3.65 0 6.15 2.575 6.15 6.35 0 3.775-2.525 6.375-6.25 6.375zm.025-1.525c2.475 0 3.85-1.7 3.85-4.725v-.225c0-3.075-1.375-4.725-3.825-4.725-2.475 0-3.85 1.675-3.85 4.725v.225c0 3.05 1.35 4.725 3.825 4.725zM418.1 284v-1.45h1.425c.2 0 .35-.075.35-.575v-12.45c0-.525-.1-.675-.35-.675h-1.475v-1.45h1.4c1.15 0 2.275-.125 2.8-.225v14.8c0 .5.125.575.35.575h1.375V284H418.1zm20.4 0h-1.4c-1.125 0-2.25.125-2.775.225V281.6c-.8 1.75-2.25 2.7-4.175 2.7-2.45 0-3.875-1.25-3.875-4.2v-6.2c0-.5-.125-.575-.35-.575H424.5v-1.45h4.175v8.15c0 1.975.875 2.625 2.35 2.625 2.05 0 3.275-1.75 3.275-4.425V273.9c0-.5-.125-.575-.35-.575h-1.5v-1.45h4.225v10c0 .525.1.675.375.675h1.45V284zm5.075.275c-2.4 0-3.375-.975-3.375-3.45v-7.5h-1.825v-1.3l1.2-.075c.675-.1 1.025-.325 1.1-1.05l.225-2.2h1.675v3.175h2.675v1.45h-2.75v7.475c0 1.375.525 1.9 1.7 1.9.6 0 .95-.125 1.275-.225v1.5c-.375.125-1.075.3-1.9.3zm5.725-14.125c-.95 0-1.6-.725-1.6-1.625 0-.875.65-1.6 1.6-1.6.925 0 1.6.725 1.6 1.6 0 .9-.675 1.625-1.6 1.625zM446.375 284v-1.45h1.425c.225 0 .35-.1.35-.575v-7.65c0-.775-.125-1-.55-1h-1.225v-1.45h1.35c1.15 0 2.275-.125 2.8-.225v10.325c0 .475.125.575.35.575h1.375V284h-5.875zm13.125.3c-3.7 0-6.2-2.575-6.2-6.375 0-3.75 2.55-6.35 6.3-6.35 3.65 0 6.15 2.575 6.15 6.35 0 3.775-2.525 6.375-6.25 6.375zm.025-1.525c2.475 0 3.85-1.7 3.85-4.725v-.225c0-3.075-1.375-4.725-3.825-4.725-2.475 0-3.85 1.675-3.85 4.725v.225c0 3.05 1.35 4.725 3.825 4.725zM470.8 271.65v2.825c.8-1.9 2.3-2.9 4.275-2.9 2.55 0 3.85 1.45 3.85 4.325v6.075c0 .5.125.575.375.575h1.4V284h-5.8v-1.45h1.3c.225 0 .35-.075.35-.575v-6c0-1.875-.7-2.725-2.35-2.725-2.05 0-3.375 1.725-3.375 4.925v3.8c0 .5.125.575.375.575h1.325V284h-5.85v-1.45h1.4c.25 0 .375-.075.375-.575V274c0-.525-.1-.675-.375-.675h-1.4v-1.45h1.35c1.125 0 2.25-.125 2.775-.225zm-6.525-44.15c0 .725-.375 1.375-.9 1.75.525.25 1.175.375 1.925.375 1.6 0 2.6-.8 2.6-2.275v-.2c0-1.4-.825-2.175-2.6-2.175-.7 0-1.1.1-1.35.125v-3.175c.5.125 1 .175 1.475.175 1.425 0 2.35-.825 2.35-1.975v-.2c0-1.425-.95-2.125-2.425-2.125-.775 0-1.425.15-1.95.4.5.375.85.975.85 1.65 0 1.175-.975 2.05-2.275 2.05-1.475 0-2.6-.85-2.6-2.6 0-2.725 2.65-4.275 6.7-4.275 4.3 0 6.8 1.375 6.8 4.475 0 1.675-1.15 2.975-3.325 3.475 2.475.625 3.65 2.125 3.65 4.325 0 3.275-2.875 5.05-7.475 5.05-3.925 0-6.55-1.275-6.55-4.125 0-1.8 1.175-2.85 2.75-2.85 1.3 0 2.35.9 2.35 2.125zm12.5 4.85c-1.65 0-2.725-1.05-2.725-2.625 0-1.55 1.075-2.625 2.725-2.625 1.625 0 2.725 1.075 2.725 2.625 0 1.575-1.1 2.625-2.725 2.625z"/><path fill="#26B4A5" fill-opacity=".2" d="M316 18h224v160H316z"/><path fill="#35C3B4" fill-opacity=".3" d="M540 122.933V178h-51.87a38.817 38.817 0 0 1-6.13-21c0-21.54 17.46-39 39-39 6.898 0 13.378 1.79 19 4.933z"/><path fill="#26B4A5" d="M385.125 77.575l-.7-1.875h-4.65l-.65 1.875c-.225.7-.025.875.55.875h.675V81h-6.25v-2.55h.75c.575 0 .675-.175.95-.9l4.975-13.175h5.1l4.775 13.175c.25.7.5.9 1.025.9h.625V81h-8.4v-2.55h.7c.55 0 .75-.2.525-.875zM382.15 68.5l-1.675 4.85h3.325l-1.65-4.85zm15.425 12.85c-3.225 0-4.45-1.225-4.45-4.375V71.3h-1.4v-2.275l.575-.075c1.125-.25 1.85-.7 2.075-1.875l.3-1.95h3.275v3.625H400v2.55h-2.125V77c0 1.175.45 1.525 1.325 1.525.425 0 .725-.1.975-.175V81c-.625.175-1.6.35-2.6.35zm8.925 0c-3.225 0-4.45-1.225-4.45-4.375V71.3h-1.4v-2.275l.575-.075c1.125-.25 1.85-.7 2.075-1.875l.3-1.95h3.275v3.625h2.05v2.55H406.8V77c0 1.175.45 1.525 1.325 1.525.425 0 .725-.1.975-.175V81c-.625.175-1.6.35-2.6.35zm9.325-12.9v2.5c.5-1.775 1.625-2.55 3.2-2.55 1.975 0 3.175 1.475 3.175 3.75 0 1.975-1.1 3.175-2.775 3.175-1.15 0-2.1-.8-2.1-1.9 0-.775.35-1.4.975-1.825-.175-.1-.4-.15-.625-.15-1.275 0-1.775 1.125-1.85 3.325v2.9c0 .675.175.775.5.775h.75V81H409.8v-2.55h.65c.325 0 .5-.1.5-.775V72.2c0-.7-.1-.9-.5-.9h-.75v-2.55h3.025c1.325 0 2.45-.15 3.1-.3zm12.725 2.4c-.4 0-.725.05-.975.1.1.3.175.6.175.95 0 1.175-.975 2.05-2.3 2.05-1.55 0-2.425-.775-2.425-2.2 0-2.225 2.25-3.35 6.275-3.35 4.4 0 6.025 1.15 6.025 4.325v4.95c0 .575.125.775.475.775h.65V81h-4.85c-.575-.55-.825-1.025-1.1-1.875-.6 1.275-2.275 2.225-4.075 2.225-2.375 0-3.775-1.4-3.775-3.3 0-3.45 4.25-4 7.8-4.625v-.675c0-1.3-.525-1.9-1.9-1.9zm-.1 7.75c1.325 0 2-1 2-2.45v-.9c-1.725.275-3.25.675-3.25 2.1 0 .75.525 1.25 1.25 1.25zm15.95-5.125c0-1.075.6-1.85 1.7-2.1-.375-.325-.95-.475-1.725-.475-1.725 0-2.7 1.05-2.7 3.5v.575c0 2.375.95 3.4 2.6 3.4 1.325 0 2.125-.65 2.625-1.85l2.5 1.425c-.8 1.975-2.45 3.4-5.75 3.4-4.35 0-6.925-2.375-6.925-6.525 0-4 2.6-6.425 6.9-6.425 3.75 0 5.8 1.525 5.8 4.225 0 1.725-.975 2.95-2.65 2.95-1.5 0-2.375-.95-2.375-2.1zm11.075 7.875c-3.225 0-4.45-1.225-4.45-4.375V71.3h-1.4v-2.275l.575-.075c1.125-.25 1.85-.7 2.075-1.875l.3-1.95h3.275v3.625h2.05v2.55h-2.125V77c0 1.175.45 1.525 1.325 1.525.425 0 .725-.1.975-.175V81c-.625.175-1.6.35-2.6.35zm6.975-13.325c-1.55 0-2.575-.95-2.575-2.3 0-1.35 1.025-2.3 2.575-2.3 1.55 0 2.575.95 2.575 2.3 0 1.35-1.025 2.3-2.575 2.3zM458.875 81v-2.55h.675c.35 0 .475-.175.475-.775V72.3c0-.75-.125-1-.55-1h-.6v-2.55h2.925c1.35 0 2.475-.15 3.125-.3v9.225c0 .6.125.775.475.775h.625V81h-7.15zm14.65.35c-4.125 0-6.825-2.575-6.825-6.475 0-3.875 2.775-6.475 6.95-6.475 4.075 0 6.8 2.575 6.8 6.475 0 3.875-2.75 6.475-6.925 6.475zm.05-2.675c1.4 0 1.975-.875 1.975-3.575v-.45c0-2.725-.575-3.6-1.975-3.6-1.375 0-1.975.875-1.975 3.6v.45c0 2.725.575 3.575 1.975 3.575zm13.35-10.225v2.1c.75-1.45 2.125-2.15 4.025-2.15 2.65 0 4.025 1.55 4.025 4.9v4.375c0 .675.175.775.5.775h.65V81h-7.05v-2.55h.525c.325 0 .5-.1.5-.775v-4.3c0-1.425-.4-1.95-1.4-1.95-1.125 0-1.7.775-1.7 2.7v3.55c0 .675.175.775.5.775h.525V81h-7.05v-2.55h.65c.325 0 .5-.1.5-.775V72.2c0-.7-.125-.9-.5-.9h-.65v-2.55h2.875c1.325 0 2.45-.15 3.075-.3zm20.525 12.825c-2.4 0-3.375-.975-3.375-3.45v-7.5h-1.825v-1.3l1.2-.075c.675-.1 1.025-.325 1.1-1.05l.225-2.2h1.675v3.175h2.675v1.45h-2.75V77.8c0 1.375.525 1.9 1.7 1.9.6 0 .95-.125 1.275-.225v1.5c-.375.125-1.075.3-1.9.3zm8.7.025c-3.7 0-6.2-2.575-6.2-6.375 0-3.75 2.55-6.35 6.3-6.35 3.65 0 6.15 2.575 6.15 6.35 0 3.775-2.525 6.375-6.25 6.375zm.025-1.525c2.475 0 3.85-1.7 3.85-4.725v-.225c0-3.075-1.375-4.725-3.825-4.725-2.475 0-3.85 1.675-3.85 4.725v.225c0 3.05 1.35 4.725 3.825 4.725zm-116.275 26.5c-2.4 0-3.375-.975-3.375-3.45v-7.5H394.7v-1.3l1.2-.075c.675-.1 1.025-.325 1.1-1.05l.225-2.2h1.675v3.175h2.675v1.45h-2.75v7.475c0 1.375.525 1.9 1.7 1.9.6 0 .95-.125 1.275-.225v1.5c-.375.125-1.075.3-1.9.3zm6.625-17.1v7.2c.825-1.85 2.3-2.8 4.25-2.8 2.55 0 3.85 1.425 3.85 4.275v6.125c0 .5.125.575.375.575h1.4V106h-5.8v-1.45h1.275c.25 0 .375-.075.375-.575V97.95c0-1.85-.7-2.7-2.35-2.7-2.05 0-3.375 1.775-3.375 4.95v3.775c0 .5.125.575.35.575h1.35V106h-5.85v-1.45h1.4c.25 0 .375-.075.375-.575v-12.45c0-.525-.1-.675-.375-.675h-1.45V89.4h1.425c1.125 0 2.25-.125 2.775-.225zm22.425 11.175h-9.45c.05 2.575 1.45 4.425 4.075 4.425 2.1 0 3.275-1.075 3.825-2.825l1.45.6c-.6 2.125-2.325 3.75-5.45 3.75-4.05 0-6.325-2.675-6.325-6.375 0-3.725 2.5-6.35 6.15-6.35 3.6 0 5.725 2.375 5.725 6.175v.6zm-5.725-5.3c-2.225 0-3.55 1.425-3.725 3.975h7.075c-.05-2.65-1.2-3.975-3.35-3.975zm12.875 10.175v-3.15h1.85v2.35c.6.275 1.55.475 2.7.475 1.75 0 2.825-.65 2.825-1.975 0-1.425-1.375-1.775-3.15-2.125-2.1-.4-4.225-1.025-4.225-3.5 0-2.225 1.8-3.725 4.9-3.725 1.7 0 3.325.5 4.3 1.025v3.125h-1.85V95.5c-.5-.3-1.4-.525-2.4-.525-1.75 0-2.75.7-2.75 1.9 0 1.475 1.425 1.675 3.15 2 2.2.425 4.225 1.125 4.225 3.6 0 2.3-1.825 3.825-5 3.825-1.75 0-3.425-.5-4.575-1.075zm17.05 1.075c-3.7 0-6.2-2.575-6.2-6.375 0-3.75 2.55-6.35 6.3-6.35 3.65 0 6.15 2.575 6.15 6.35 0 3.775-2.525 6.375-6.25 6.375zm.025-1.525c2.475 0 3.85-1.7 3.85-4.725v-.225c0-3.075-1.375-4.725-3.825-4.725-2.475 0-3.85 1.675-3.85 4.725v.225c0 3.05 1.35 4.725 3.825 4.725zM460.1 106v-1.45h1.425c.2 0 .35-.075.35-.575v-12.45c0-.525-.1-.675-.35-.675h-1.475V89.4h1.4c1.15 0 2.275-.125 2.8-.225v14.8c0 .5.125.575.35.575h1.375V106H460.1zm20.4 0h-1.4c-1.125 0-2.25.125-2.775.225V103.6c-.8 1.75-2.25 2.7-4.175 2.7-2.45 0-3.875-1.25-3.875-4.2v-6.2c0-.5-.125-.575-.35-.575H466.5v-1.45h4.175v8.15c0 1.975.875 2.625 2.35 2.625 2.05 0 3.275-1.75 3.275-4.425V95.9c0-.5-.125-.575-.35-.575h-1.5v-1.45h4.225v10c0 .525.1.675.375.675h1.45V106zm5.075.275c-2.4 0-3.375-.975-3.375-3.45v-7.5h-1.825v-1.3l1.2-.075c.675-.1 1.025-.325 1.1-1.05l.225-2.2h1.675v3.175h2.675v1.45h-2.75v7.475c0 1.375.525 1.9 1.7 1.9.6 0 .95-.125 1.275-.225v1.5c-.375.125-1.075.3-1.9.3zM491.3 92.15c-.95 0-1.6-.725-1.6-1.625 0-.875.65-1.6 1.6-1.6.925 0 1.6.725 1.6 1.6 0 .9-.675 1.625-1.6 1.625zM488.375 106v-1.45h1.425c.225 0 .35-.1.35-.575v-7.65c0-.775-.125-1-.55-1h-1.225v-1.45h1.35c1.15 0 2.275-.125 2.8-.225v10.325c0 .475.125.575.35.575h1.375V106h-5.875zm13.125.3c-3.7 0-6.2-2.575-6.2-6.375 0-3.75 2.55-6.35 6.3-6.35 3.65 0 6.15 2.575 6.15 6.35 0 3.775-2.525 6.375-6.25 6.375zm.025-1.525c2.475 0 3.85-1.7 3.85-4.725v-.225c0-3.075-1.375-4.725-3.825-4.725-2.475 0-3.85 1.675-3.85 4.725v.225c0 3.05 1.35 4.725 3.825 4.725zM512.8 93.65v2.825c.8-1.9 2.3-2.9 4.275-2.9 2.55 0 3.85 1.45 3.85 4.325v6.075c0 .5.125.575.375.575h1.4V106h-5.8v-1.45h1.3c.225 0 .35-.075.35-.575v-6c0-1.875-.7-2.725-2.35-2.725-2.05 0-3.375 1.725-3.375 4.925v3.8c0 .5.125.575.375.575h1.325V106h-5.85v-1.45h1.4c.25 0 .375-.075.375-.575V96c0-.525-.1-.675-.375-.675h-1.4v-1.45h1.35c1.125 0 2.25-.125 2.775-.225z"/><path fill="#26B4A5" d="M509.55 148l-4.5-4.5 4.95-4.95 15.95 15.95L510 170.45l-4.95-4.95 4.5-4.5H373v-13h136.55zm6.45 6.45v.1l.05-.05-.05-.05z"/><path fill="#26B4A5" d="M508.275 41.9c-.875 0-1.475.25-1.925.6.825.35 1.325 1.125 1.325 2.075 0 1.325-1.025 2.4-2.55 2.4-1.7 0-2.925-1.125-2.925-3.025 0-2.925 2.475-4.9 7-4.9 4.5 0 6.925 1.975 6.925 5.5 0 5.9-7.9 4.8-10.075 7.9h5.425c1 0 1.275-.175 1.325-1.025l.125-1.125h2.8V56h-13.65l.075-1.6c.45-6.625 8.725-6.35 8.725-9.9 0-1.675-.9-2.6-2.6-2.6zm11.5 14.45c-1.65 0-2.725-1.05-2.725-2.625 0-1.55 1.075-2.625 2.725-2.625 1.625 0 2.725 1.075 2.725 2.625 0 1.575-1.1 2.625-2.725 2.625z"/><path fill="#26B4A5" fill-opacity=".2" d="M75 18h224v160H75z"/><path fill="#35C3B4" fill-opacity=".3" d="M126.87 178H75v-55.067A38.823 38.823 0 0 1 94 118c21.54 0 39 17.46 39 39 0 7.732-2.25 14.938-6.13 21z"/><path fill="#26B4A5" d="M225.55 148l-4.5-4.5 4.95-4.95 15.95 15.95L226 170.45l-4.95-4.95 4.5-4.5H89v-13h136.55zm6.45 6.45v.1l.05-.05-.05-.05z"/><path fill="#26B4A5" d="M98.175 83.35c-2.8 0-4.9-.6-6.375-1.25v-4.175h3.9v2.3c.6.225 1.5.375 2.4.375 1.35 0 2.25-.6 2.25-1.625 0-1.425-1.15-1.6-3.625-2.2-2.95-.75-5.05-1.95-5.05-5.1 0-3.45 2.525-5.625 7.15-5.625 2.575 0 4.5.525 5.95 1.15v4.025H100.9V69.2c-.5-.175-1.25-.3-2.025-.3-1.475 0-2.3.575-2.3 1.6 0 1.25 1.125 1.425 3.475 2.025 2.775.7 5.3 1.775 5.3 5.15 0 3.45-2.175 5.675-7.175 5.675zm13.475 0c-3.225 0-4.45-1.225-4.45-4.375V73.3h-1.4v-2.275l.575-.075c1.125-.25 1.85-.7 2.075-1.875l.3-1.95h3.275v3.625h2.05v2.55h-2.125V79c0 1.175.45 1.525 1.325 1.525.425 0 .725-.1.975-.175V83c-.625.175-1.6.35-2.6.35zm9.325-12.9v2.5c.5-1.775 1.625-2.55 3.2-2.55 1.975 0 3.175 1.475 3.175 3.75 0 1.975-1.1 3.175-2.775 3.175-1.15 0-2.1-.8-2.1-1.9 0-.775.35-1.4.975-1.825-.175-.1-.4-.15-.625-.15-1.275 0-1.775 1.125-1.85 3.325v2.9c0 .675.175.775.5.775h.75V83h-7.275v-2.55h.65c.325 0 .5-.1.5-.775V74.2c0-.7-.1-.9-.5-.9h-.75v-2.55h3.025c1.325 0 2.45-.15 3.1-.3zM142.925 83H139.9c-1.325 0-2.45.15-3.1.3v-1.95c-.8 1.35-2.125 2-3.925 2-2.7 0-4.025-1.5-4.025-4.85v-4.425c0-.675-.175-.775-.5-.775h-.65v-2.55h6.025v7.675c0 1.45.45 1.9 1.425 1.9 1.125 0 1.65-.775 1.65-2.55v-3.7c0-.675-.175-.775-.5-.775h-.925v-2.55h6.3v8.8c0 .7.125.9.5.9h.75V83zm7.05 4.975c-5.45 0-7.075-.775-7.075-2.3 0-1.05.95-1.85 2.9-2.325-1.575-.45-2.375-1.4-2.375-2.75 0-1.25.8-2.2 2.25-2.725-1.125-.7-1.7-1.75-1.7-3.175 0-2.575 2.55-4.3 6.25-4.3 1.375 0 2.6.25 3.575.7.4-1.35 1.275-2.1 2.5-2.1 1.175 0 2 .725 2 1.775 0 1.125-.575 1.75-1.6 1.75-.6 0-1.1-.25-1.375-.725l-.225.15c.725.7 1.15 1.625 1.15 2.725 0 2.7-2.375 4.175-6.25 4.175-1.05 0-2-.1-2.775-.3-.45.075-.625.225-.625.525 0 .475.325.65 1.35.65 1.825 0 3.95-.075 5.55-.075 2.875 0 4.175 1.55 4.175 3.725 0 3-2.3 4.6-7.7 4.6zm.075-11.225c1.025 0 1.5-.55 1.5-1.825V74.4c0-1.275-.475-1.85-1.45-1.85-1.025 0-1.5.625-1.5 1.875v.55c0 1.2.475 1.775 1.45 1.775zm2.325 7.15h-4.525c-.875.25-1.35.7-1.35 1.25 0 .775.95.975 3.675.975 2.925 0 4.05-.425 4.05-1.3 0-.7-.3-.925-1.85-.925zm12.275 4.075c-5.45 0-7.075-.775-7.075-2.3 0-1.05.95-1.85 2.9-2.325-1.575-.45-2.375-1.4-2.375-2.75 0-1.25.8-2.2 2.25-2.725-1.125-.7-1.7-1.75-1.7-3.175 0-2.575 2.55-4.3 6.25-4.3 1.375 0 2.6.25 3.575.7.4-1.35 1.275-2.1 2.5-2.1 1.175 0 2 .725 2 1.775 0 1.125-.575 1.75-1.6 1.75-.6 0-1.1-.25-1.375-.725l-.225.15c.725.7 1.15 1.625 1.15 2.725 0 2.7-2.375 4.175-6.25 4.175-1.05 0-2-.1-2.775-.3-.45.075-.625.225-.625.525 0 .475.325.65 1.35.65 1.825 0 3.95-.075 5.55-.075 2.875 0 4.175 1.55 4.175 3.725 0 3-2.3 4.6-7.7 4.6zm.075-11.225c1.025 0 1.5-.55 1.5-1.825V74.4c0-1.275-.475-1.85-1.45-1.85-1.025 0-1.5.625-1.5 1.875v.55c0 1.2.475 1.775 1.45 1.775zm2.325 7.15h-4.525c-.875.25-1.35.7-1.35 1.25 0 .775.95.975 3.675.975 2.925 0 4.05-.425 4.05-1.3 0-.7-.3-.925-1.85-.925zm5.9-.9v-2.55h.675c.3 0 .475-.1.475-.775V69.85c0-.7-.1-.9-.475-.9h-.775V66.4h3.025c1.35 0 2.475-.15 3.125-.3v13.575c0 .675.175.775.475.775h.55V83h-7.075zm20.5-5.225h-7.975c.075 1.825 1.125 2.675 2.825 2.675 1.525 0 2.325-.8 2.775-1.75l2.275 1.625c-.9 1.725-2.675 3.025-6.025 3.025-4.45 0-6.85-2.65-6.85-6.5 0-3.875 2.625-6.45 6.725-6.45 4.25 0 6.25 2.475 6.25 6.875v.5zm-6.225-4.85c-1.175 0-1.725.775-1.825 2.75h3.425c-.05-2.025-.525-2.75-1.6-2.75zM206.35 83.3c-3.7 0-6.2-2.575-6.2-6.375 0-3.75 2.55-6.35 6.3-6.35 3.65 0 6.15 2.575 6.15 6.35 0 3.775-2.525 6.375-6.25 6.375zm.025-1.525c2.475 0 3.85-1.7 3.85-4.725v-.225c0-3.075-1.375-4.725-3.825-4.725-2.475 0-3.85 1.675-3.85 4.725v.225c0 3.05 1.35 4.725 3.825 4.725zm6.7-9.45v-1.45h1.75V69.6c0-2.625 1.025-3.65 3.375-3.65.875 0 1.6.225 1.925.425v1.45c-.3-.175-.775-.3-1.3-.3-1.275 0-1.75.5-1.7 2.375v.975h2.425v1.45h-2.4v8.65c0 .5.125.575.375.575h1.575V83h-5.95v-1.45h1.3c.25 0 .375-.075.375-.575v-8.65h-1.75zm-116.7 35.95c-2.4 0-3.375-.975-3.375-3.45v-7.5h-1.825v-1.3l1.2-.075c.675-.1 1.025-.325 1.1-1.05l.225-2.2h1.675v3.175h2.675v1.45H95.3v7.475c0 1.375.525 1.9 1.7 1.9.6 0 .95-.125 1.275-.225v1.5c-.375.125-1.075.3-1.9.3zm6.625-17.1v7.2c.825-1.85 2.3-2.8 4.25-2.8 2.55 0 3.85 1.425 3.85 4.275v6.125c0 .5.125.575.375.575h1.4V108h-5.8v-1.45h1.275c.25 0 .375-.075.375-.575V99.95c0-1.85-.7-2.7-2.35-2.7-2.05 0-3.375 1.775-3.375 4.95v3.775c0 .5.125.575.35.575h1.35V108h-5.85v-1.45h1.4c.25 0 .375-.075.375-.575v-12.45c0-.525-.1-.675-.375-.675H98.8V91.4h1.425c1.125 0 2.25-.125 2.775-.225zm22.425 11.175h-9.45c.05 2.575 1.45 4.425 4.075 4.425 2.1 0 3.275-1.075 3.825-2.825l1.45.6c-.6 2.125-2.325 3.75-5.45 3.75-4.05 0-6.325-2.675-6.325-6.375 0-3.725 2.5-6.35 6.15-6.35 3.6 0 5.725 2.375 5.725 6.175v.6zm-5.725-5.3c-2.225 0-3.55 1.425-3.725 3.975h7.075c-.05-2.65-1.2-3.975-3.35-3.975zM132.25 108v-1.45h1.4c.25 0 .375-.075.375-.575V98c0-.525-.1-.675-.375-.675h-1.4v-1.45h1.325c1.15 0 2.275-.125 2.775-.225v2.425c.75-1.625 1.925-2.5 3.725-2.5 1.95 0 3.175.925 3.575 2.875.675-1.875 1.925-2.875 3.9-2.875 2.65 0 3.925 1.475 3.925 4.65v5.75c0 .5.125.575.375.575h1.4V108h-5.775v-1.45h1.275c.225 0 .35-.075.35-.575v-5.6c0-2.15-.7-3.1-2.375-3.1-1.825 0-2.775 1.5-2.775 4.175v4.525c0 .5.125.575.35.575h1.425V108h-5.775v-1.45h1.25c.225 0 .375-.075.375-.575v-5.9c0-1.85-.825-2.8-2.375-2.8-1.825 0-2.8 1.5-2.8 4.175v4.525c0 .5.125.575.375.575h1.325V108h-5.85zm27.925.3c-3.7 0-6.2-2.575-6.2-6.375 0-3.75 2.55-6.35 6.3-6.35 3.65 0 6.15 2.575 6.15 6.35 0 3.775-2.525 6.375-6.25 6.375zm.025-1.525c2.475 0 3.85-1.7 3.85-4.725v-.225c0-3.075-1.375-4.725-3.825-4.725-2.475 0-3.85 1.675-3.85 4.725v.225c0 3.05 1.35 4.725 3.825 4.725zm7.15 1.225v-1.45h1.4c.25 0 .375-.075.375-.575V98c0-.525-.1-.675-.375-.675h-1.4v-1.45h1.325c1.15 0 2.275-.125 2.775-.225v2.425c.75-1.625 1.925-2.5 3.725-2.5 1.95 0 3.175.925 3.575 2.875.675-1.875 1.925-2.875 3.9-2.875 2.65 0 3.925 1.475 3.925 4.65v5.75c0 .5.125.575.375.575h1.4V108h-5.775v-1.45h1.275c.225 0 .35-.075.35-.575v-5.6c0-2.15-.7-3.1-2.375-3.1-1.825 0-2.775 1.5-2.775 4.175v4.525c0 .5.125.575.35.575h1.425V108h-5.775v-1.45h1.25c.225 0 .375-.075.375-.575v-5.9c0-1.85-.825-2.8-2.375-2.8-1.825 0-2.8 1.5-2.8 4.175v4.525c0 .5.125.575.375.575h1.325V108h-5.85zm33.6-5.65h-9.45c.05 2.575 1.45 4.425 4.075 4.425 2.1 0 3.275-1.075 3.825-2.825l1.45.6c-.6 2.125-2.325 3.75-5.45 3.75-4.05 0-6.325-2.675-6.325-6.375 0-3.725 2.5-6.35 6.15-6.35 3.6 0 5.725 2.375 5.725 6.175v.6zm-5.725-5.3c-2.225 0-3.55 1.425-3.725 3.975h7.075c-.05-2.65-1.2-3.975-3.35-3.975zm10.85-1.4v2.825c.8-1.9 2.3-2.9 4.275-2.9 2.55 0 3.85 1.45 3.85 4.325v6.075c0 .5.125.575.375.575h1.4V108h-5.8v-1.45h1.3c.225 0 .35-.075.35-.575v-6c0-1.875-.7-2.725-2.35-2.725-2.05 0-3.375 1.725-3.375 4.925v3.8c0 .5.125.575.375.575h1.325V108h-5.85v-1.45h1.4c.25 0 .375-.075.375-.575V98c0-.525-.1-.675-.375-.675h-1.4v-1.45h1.35c1.125 0 2.25-.125 2.775-.225zm14.975 12.625c-2.4 0-3.375-.975-3.375-3.45v-7.5h-1.825v-1.3l1.2-.075c.675-.1 1.025-.325 1.1-1.05l.225-2.2h1.675v3.175h2.675v1.45h-2.75v7.475c0 1.375.525 1.9 1.7 1.9.6 0 .95-.125 1.275-.225v1.5c-.375.125-1.075.3-1.9.3zM92.675 45.225h-.925v-2.95h.75c2.025 0 2.55-.825 3.15-2.9h3.75v13.3c0 .65.2.775.5.775h1.8V56H92v-2.55h2.025c.325 0 .5-.125.5-.775v-7.7c-.55.175-1.15.25-1.85.25zm12.85 11.125c-1.65 0-2.725-1.05-2.725-2.625 0-1.55 1.075-2.625 2.725-2.625 1.625 0 2.725 1.075 2.725 2.625 0 1.575-1.1 2.625-2.725 2.625z"/></g></svg>
