<svg xmlns="http://www.w3.org/2000/svg" width="165" height="59" viewBox="0 0 165 59">
  <g fill="none" fill-rule="evenodd">
    <rect width="165" height="59" fill="#26B4A5"/>
    <path fill="#E3FFFC" d="M45.72,19 C45.8333339,19.2133344 45.9383329,19.4349988 46.035,19.665 C46.1316671,19.8950011 46.2266662,20.1266655 46.32,20.36 C46.4133338,20.1199988 46.5099995,19.8833345 46.61,19.65 C46.7100005,19.4166655 46.8166661,19.1933344 46.93,18.98 L51.21,10.97 C51.2633336,10.8699995 51.318333,10.7900003 51.375,10.73 C51.431667,10.6699997 51.4949996,10.6266668 51.565,10.6 C51.6350003,10.5733332 51.7133329,10.5566667 51.8,10.55 C51.8866671,10.5433333 51.9899994,10.54 52.11,10.54 L54.14,10.54 L54.14,25 L51.77,25 L51.77,15.66 C51.77,15.4866658 51.775,15.2966677 51.785,15.09 C51.795,14.8833323 51.8099999,14.6733344 51.83,14.46 L47.46,22.66 C47.3599995,22.8466676 47.2300008,22.9916662 47.07,23.095 C46.9099992,23.1983338 46.7233344,23.25 46.51,23.25 L46.14,23.25 C45.9266656,23.25 45.7400008,23.1983338 45.58,23.095 C45.4199992,22.9916662 45.2900005,22.8466676 45.19,22.66 L40.76,14.43 C40.7866668,14.6500011 40.805,14.864999 40.815,15.075 C40.825,15.285001 40.83,15.4799991 40.83,15.66 L40.83,25 L38.46,25 L38.46,10.54 L40.49,10.54 C40.6100006,10.54 40.7133329,10.5433333 40.8,10.55 C40.8866671,10.5566667 40.9649997,10.5733332 41.035,10.6 C41.1050003,10.6266668 41.1699997,10.6699997 41.23,10.73 C41.2900003,10.7900003 41.3466664,10.8699995 41.4,10.97 L45.72,19 Z M61.3,14.58 C62.0666705,14.58 62.7616636,14.7033321 63.385,14.95 C64.0083365,15.1966679 64.5399978,15.5466644 64.98,16 C65.4200022,16.4533356 65.7599988,17.0066634 66,17.66 C66.2400012,18.3133366 66.36,19.0433293 66.36,19.85 C66.36,20.6633374 66.2400012,21.3966634 66,22.05 C65.7599988,22.7033366 65.4200022,23.2599977 64.98,23.72 C64.5399978,24.1800023 64.0083365,24.5333321 63.385,24.78 C62.7616636,25.0266679 62.0666705,25.15 61.3,25.15 C60.5333295,25.15 59.8366698,25.0266679 59.21,24.78 C58.5833302,24.5333321 58.0483356,24.1800023 57.605,23.72 C57.1616645,23.2599977 56.8183346,22.7033366 56.575,22.05 C56.3316655,21.3966634 56.21,20.6633374 56.21,19.85 C56.21,19.0433293 56.3316655,18.3133366 56.575,17.66 C56.8183346,17.0066634 57.1616645,16.4533356 57.605,16 C58.0483356,15.5466644 58.5833302,15.1966679 59.21,14.95 C59.8366698,14.7033321 60.5333295,14.58 61.3,14.58 Z M61.3,23.25 C62.1533376,23.25 62.784998,22.9633362 63.195,22.39 C63.6050021,21.8166638 63.81,20.9766722 63.81,19.87 C63.81,18.7633278 63.6050021,17.9200029 63.195,17.34 C62.784998,16.7599971 62.1533376,16.47 61.3,16.47 C60.433329,16.47 59.7933354,16.7616637 59.38,17.345 C58.9666646,17.9283363 58.76,18.7699945 58.76,19.87 C58.76,20.9700055 58.9666646,21.8083304 59.38,22.385 C59.7933354,22.9616695 60.433329,23.25 61.3,23.25 Z M75.51,25 C75.1899984,25 74.9800005,24.8500015 74.88,24.55 L74.68,23.56 C74.4666656,23.8000012 74.2433345,24.0166657 74.01,24.21 C73.7766655,24.4033343 73.5250013,24.5699993 73.255,24.71 C72.9849986,24.8500007 72.6950016,24.9583329 72.385,25.035 C72.0749985,25.1116671 71.7400018,25.15 71.38,25.15 C70.8199972,25.15 70.306669,25.0333345 69.84,24.8 C69.373331,24.5666655 68.9716684,24.2283356 68.635,23.785 C68.2983316,23.3416644 68.0383343,22.7933366 67.855,22.14 C67.6716658,21.4866634 67.58,20.7400042 67.58,19.9 C67.58,19.1399962 67.6833323,18.4333366 67.89,17.78 C68.0966677,17.1266634 68.3933314,16.5600024 68.78,16.08 C69.1666686,15.5999976 69.6299973,15.2250013 70.17,14.955 C70.7100027,14.6849986 71.3166633,14.55 71.99,14.55 C72.5633362,14.55 73.0533313,14.6416658 73.46,14.825 C73.8666687,15.0083343 74.2299984,15.2533318 74.55,15.56 L74.55,10.14 L77.02,10.14 L77.02,25 L75.51,25 Z M72.22,23.19 C72.7333359,23.19 73.1699982,23.0833344 73.53,22.87 C73.8900018,22.6566656 74.2299984,22.3533353 74.55,21.96 L74.55,17.36 C74.2699986,17.0199983 73.9650017,16.7800007 73.635,16.64 C73.3049984,16.4999993 72.9500019,16.43 72.57,16.43 C72.1966648,16.43 71.8583349,16.4999993 71.555,16.64 C71.2516652,16.7800007 70.995001,16.9916652 70.785,17.275 C70.574999,17.5583348 70.4133339,17.9183312 70.3,18.355 C70.1866661,18.7916688 70.13,19.3066637 70.13,19.9 C70.13,20.500003 70.1783329,21.0083312 70.275,21.425 C70.3716672,21.8416688 70.5099991,22.1816654 70.69,22.445 C70.8700009,22.7083346 71.0899987,22.8983328 71.35,23.015 C71.6100013,23.1316672 71.8999984,23.19 72.22,23.19 Z M83.93,14.58 C84.5766699,14.58 85.171664,14.6833323 85.715,14.89 C86.258336,15.0966677 86.7266647,15.3983314 87.12,15.795 C87.5133353,16.1916686 87.8199989,16.6783305 88.04,17.255 C88.2600011,17.8316696 88.37,18.4899963 88.37,19.23 C88.37,19.4166676 88.3616668,19.571666 88.345,19.695 C88.3283333,19.818334 88.2983336,19.9149996 88.255,19.985 C88.2116665,20.0550004 88.1533337,20.1049998 88.08,20.135 C88.0066663,20.1650001 87.9133339,20.18 87.8,20.18 L81.46,20.18 C81.5333337,21.2333386 81.8166642,22.0066642 82.31,22.5 C82.8033358,22.9933358 83.4566626,23.24 84.27,23.24 C84.670002,23.24 85.0149986,23.1933338 85.305,23.1 C85.5950014,23.0066662 85.8483322,22.9033339 86.065,22.79 C86.2816677,22.6766661 86.4716658,22.5733338 86.635,22.48 C86.7983342,22.3866662 86.9566659,22.34 87.11,22.34 C87.2100005,22.34 87.2966663,22.3599998 87.37,22.4 C87.4433337,22.4400002 87.5066664,22.4966663 87.56,22.57 L88.28,23.47 C88.0066653,23.7900016 87.7000017,24.0583322 87.36,24.275 C87.0199983,24.4916677 86.6650019,24.6649994 86.295,24.795 C85.9249981,24.9250007 85.5483353,25.0166664 85.165,25.07 C84.7816648,25.1233336 84.4100018,25.15 84.05,25.15 C83.3366631,25.15 82.6733364,25.0316678 82.06,24.795 C81.4466636,24.5583321 80.9133356,24.2083357 80.46,23.745 C80.0066644,23.2816643 79.6500013,22.7083368 79.39,22.025 C79.1299987,21.3416632 79,20.5500045 79,19.65 C79,18.9499965 79.1133322,18.2916697 79.34,17.675 C79.5666678,17.0583302 79.8916646,16.5216689 80.315,16.065 C80.7383354,15.608331 81.254997,15.246668 81.865,14.98 C82.475003,14.713332 83.1633295,14.58 83.93,14.58 Z M83.98,16.35 C83.2599964,16.35 82.6966687,16.5533313 82.29,16.96 C81.8833313,17.3666687 81.6233339,17.9433296 81.51,18.69 L86.15,18.69 C86.15,18.3699984 86.1066671,18.0683347 86.02,17.785 C85.9333329,17.5016652 85.8000009,17.2533344 85.62,17.04 C85.4399991,16.8266656 85.2133347,16.6583339 84.94,16.535 C84.6666653,16.4116661 84.3466685,16.35 83.98,16.35 Z M96.47,16.74 C96.403333,16.8466672 96.3333337,16.9216664 96.26,16.965 C96.1866663,17.0083336 96.0933339,17.03 95.98,17.03 C95.8599994,17.03 95.7316674,16.996667 95.595,16.93 C95.4583327,16.863333 95.3000009,16.7883337 95.12,16.705 C94.9399991,16.6216662 94.7350012,16.546667 94.505,16.48 C94.2749989,16.413333 94.0033349,16.38 93.69,16.38 C93.2033309,16.38 92.8200014,16.4833323 92.54,16.69 C92.2599986,16.8966677 92.12,17.166665 92.12,17.5 C92.12,17.7200011 92.191666,17.9049993 92.335,18.055 C92.4783341,18.2050007 92.6683321,18.3366661 92.905,18.45 C93.1416679,18.5633339 93.4099985,18.6649995 93.71,18.755 C94.0100015,18.8450005 94.3166651,18.9433328 94.63,19.05 C94.9433349,19.1566672 95.2499985,19.2783327 95.55,19.415 C95.8500015,19.5516673 96.1183322,19.7249989 96.355,19.935 C96.5916679,20.145001 96.781666,20.3966652 96.925,20.69 C97.0683341,20.9833348 97.14,21.3366646 97.14,21.75 C97.14,22.2433358 97.0500009,22.6983312 96.87,23.115 C96.6899991,23.5316688 96.4266684,23.8916652 96.08,24.195 C95.7333316,24.4983348 95.3050025,24.7349992 94.795,24.905 C94.2849975,25.0750009 93.7000033,25.16 93.04,25.16 C92.6866649,25.16 92.3416684,25.1283337 92.005,25.065 C91.6683316,25.0016664 91.3450016,24.9133339 91.035,24.8 C90.7249985,24.6866661 90.4383347,24.5533341 90.175,24.4 C89.9116653,24.2466659 89.680001,24.0800009 89.48,23.9 L90.05,22.96 C90.1233337,22.8466661 90.2099995,22.7600003 90.31,22.7 C90.4100005,22.6399997 90.5366659,22.61 90.69,22.61 C90.8433341,22.61 90.9883327,22.6533329 91.125,22.74 C91.2616674,22.8266671 91.4199991,22.9199995 91.6,23.02 C91.7800009,23.1200005 91.9916654,23.2133329 92.235,23.3 C92.4783345,23.3866671 92.7866648,23.43 93.16,23.43 C93.4533348,23.43 93.704999,23.3950004 93.915,23.325 C94.1250011,23.2549996 94.2983326,23.1633339 94.435,23.05 C94.5716673,22.9366661 94.6716663,22.8050008 94.735,22.655 C94.7983337,22.5049993 94.83,22.3500008 94.83,22.19 C94.83,21.9499988 94.7583341,21.7533341 94.615,21.6 C94.471666,21.4466659 94.2816679,21.3133339 94.045,21.2 C93.8083321,21.0866661 93.5383348,20.9850005 93.235,20.895 C92.9316652,20.8049995 92.6216682,20.7066672 92.305,20.6 C91.9883318,20.4933328 91.6783348,20.3683341 91.375,20.225 C91.0716652,20.081666 90.8016679,19.9000011 90.565,19.68 C90.3283321,19.4599989 90.138334,19.1900016 89.995,18.87 C89.8516659,18.5499984 89.78,18.1633356 89.78,17.71 C89.78,17.2899979 89.8633325,16.8900019 90.03,16.51 C90.1966675,16.1299981 90.441665,15.7983347 90.765,15.515 C91.0883349,15.2316653 91.4916642,15.0050009 91.975,14.835 C92.4583358,14.6649991 93.0166635,14.58 93.65,14.58 C94.3566702,14.58 94.9999971,14.6966655 95.58,14.93 C96.1600029,15.1633345 96.6433314,15.4699981 97.03,15.85 L96.47,16.74 Z M102.49,25.16 C101.603329,25.16 100.920002,24.9083359 100.44,24.405 C99.9599976,23.9016641 99.72,23.2066711 99.72,22.32 L99.72,16.59 L98.68,16.59 C98.546666,16.59 98.4316672,16.5466671 98.335,16.46 C98.2383329,16.3733329 98.19,16.2433342 98.19,16.07 L98.19,15.09 L99.84,14.82 L100.36,12.02 C100.386667,11.886666 100.448333,11.7833337 100.545,11.71 C100.641667,11.6366663 100.763333,11.6 100.91,11.6 L102.19,11.6 L102.19,14.83 L104.89,14.83 L104.89,16.59 L102.19,16.59 L102.19,22.15 C102.19,22.4700016 102.269999,22.7199991 102.43,22.9 C102.590001,23.0800009 102.803332,23.17 103.07,23.17 C103.223334,23.17 103.351666,23.1516668 103.455,23.115 C103.558334,23.0783331 103.648333,23.0400002 103.725,23 C103.801667,22.9599998 103.87,22.9216669 103.93,22.885 C103.99,22.8483331 104.05,22.83 104.11,22.83 C104.183334,22.83 104.243333,22.8483331 104.29,22.885 C104.336667,22.9216669 104.386666,22.9766663 104.44,23.05 L105.18,24.25 C104.819998,24.5500015 104.406669,24.7766659 103.94,24.93 C103.473331,25.0833341 102.990003,25.16 102.49,25.16 Z M116.68,19.86 C116.68,20.6733374 116.580001,21.4066634 116.38,22.06 C116.179999,22.7133366 115.881669,23.2699977 115.485,23.73 C115.088331,24.1900023 114.593336,24.5433321 114,24.79 C113.406664,25.0366679 112.716671,25.16 111.93,25.16 C111.569998,25.16 111.216668,25.1383335 110.87,25.095 C110.523332,25.0516664 110.160002,24.9833338 109.78,24.89 L109.92,23.29 C109.933333,23.1433326 109.988333,23.0250005 110.085,22.935 C110.181667,22.8449996 110.323332,22.8 110.51,22.8 C110.623334,22.8 110.771666,22.8233331 110.955,22.87 C111.138334,22.9166669 111.369999,22.94 111.65,22.94 C112.030002,22.94 112.366665,22.8850006 112.66,22.775 C112.953335,22.6649994 113.198332,22.4900012 113.395,22.25 C113.591668,22.0099988 113.74,21.6983352 113.84,21.315 C113.940001,20.9316648 113.99,20.4666694 113.99,19.92 L113.99,10.54 L116.68,10.54 L116.68,19.86 Z M127.35,13.17 C127.276666,13.3166674 127.191667,13.4199997 127.095,13.48 C126.998333,13.5400003 126.883334,13.57 126.75,13.57 C126.616666,13.57 126.466667,13.5183339 126.3,13.415 C126.133332,13.3116662 125.936668,13.1966673 125.71,13.07 C125.483332,12.9433327 125.218335,12.8283338 124.915,12.725 C124.611665,12.6216662 124.253335,12.57 123.84,12.57 C123.466665,12.57 123.141668,12.6149996 122.865,12.705 C122.588332,12.7950005 122.355001,12.9199992 122.165,13.08 C121.974999,13.2400008 121.833334,13.4316656 121.74,13.655 C121.646666,13.8783344 121.6,14.123332 121.6,14.39 C121.6,14.7300017 121.694999,15.0133322 121.885,15.24 C122.075001,15.4666678 122.326665,15.6599992 122.64,15.82 C122.953335,15.9800008 123.309998,16.1233327 123.71,16.25 C124.110002,16.3766673 124.518331,16.5116659 124.935,16.655 C125.351669,16.798334 125.759998,16.964999 126.16,17.155 C126.560002,17.3450009 126.916665,17.5849985 127.23,17.875 C127.543335,18.1650014 127.794999,18.5199979 127.985,18.94 C128.175001,19.3600021 128.27,19.869997 128.27,20.47 C128.27,21.1233366 128.158334,21.7349971 127.935,22.305 C127.711666,22.8750029 127.385002,23.3716645 126.955,23.795 C126.524998,24.2183354 126.000003,24.5516655 125.38,24.795 C124.759997,25.0383346 124.050004,25.16 123.25,25.16 C122.789998,25.16 122.336669,25.1150005 121.89,25.025 C121.443331,24.9349996 121.015002,24.8066675 120.605,24.64 C120.194998,24.4733325 119.811668,24.2733345 119.455,24.04 C119.098332,23.8066655 118.780001,23.5466681 118.5,23.26 L119.28,21.97 C119.353334,21.8766662 119.441666,21.7983336 119.545,21.735 C119.648334,21.6716664 119.763333,21.64 119.89,21.64 C120.056668,21.64 120.236666,21.7083327 120.43,21.845 C120.623334,21.9816674 120.851665,22.1333325 121.115,22.3 C121.378335,22.4666675 121.688332,22.6183326 122.045,22.755 C122.401668,22.8916674 122.829998,22.96 123.33,22.96 C124.096671,22.96 124.689998,22.7783352 125.11,22.415 C125.530002,22.0516649 125.74,21.5300034 125.74,20.85 C125.74,20.4699981 125.645001,20.1600012 125.455,19.92 C125.264999,19.6799988 125.013335,19.4783341 124.7,19.315 C124.386665,19.1516659 124.030002,19.0133339 123.63,18.9 C123.229998,18.7866661 122.823335,18.663334 122.41,18.53 C121.996665,18.396666 121.590002,18.2366676 121.19,18.05 C120.789998,17.8633324 120.433335,17.6200015 120.12,17.32 C119.806665,17.0199985 119.555001,16.6450022 119.365,16.195 C119.174999,15.7449977 119.08,15.1900033 119.08,14.53 C119.08,14.0033307 119.184999,13.4900025 119.395,12.99 C119.605001,12.4899975 119.911665,12.0466686 120.315,11.66 C120.718335,11.2733314 121.21333,10.9633345 121.8,10.73 C122.38667,10.4966655 123.056663,10.38 123.81,10.38 C124.663338,10.38 125.449996,10.513332 126.17,10.78 C126.890004,11.046668 127.503331,11.4199976 128.01,11.9 L127.35,13.17 Z M37.12,34.54 L39.38,34.54 C39.6133345,34.54 39.8083326,34.5949995 39.965,34.705 C40.1216675,34.8150005 40.2266664,34.9633324 40.28,35.15 L42.74,43.8 C42.8000003,44.0133344 42.8549997,44.2449988 42.905,44.495 C42.9550002,44.7450013 43.0033331,45.0099986 43.05,45.29 C43.1033336,45.0099986 43.1616663,44.7450013 43.225,44.495 C43.2883336,44.2449988 43.3566663,44.0133344 43.43,43.8 L46.27,35.15 C46.3233336,34.9966659 46.4283326,34.8566673 46.585,34.73 C46.7416675,34.6033327 46.9333322,34.54 47.16,34.54 L47.95,34.54 C48.1833345,34.54 48.3766659,34.5949995 48.53,34.705 C48.6833341,34.8150005 48.7899997,34.9633324 48.85,35.15 L51.67,43.8 C51.8166674,44.2266688 51.9433328,44.6999974 52.05,45.22 C52.0966669,44.9599987 52.1449997,44.7100012 52.195,44.47 C52.2450003,44.2299988 52.2966664,44.0066677 52.35,43.8 L54.81,35.15 C54.8566669,34.9833325 54.9599992,34.8400006 55.12,34.72 C55.2800008,34.5999994 55.4733322,34.54 55.7,34.54 L57.81,34.54 L53.32,49 L50.89,49 L47.73,39.12 C47.6899998,38.9933327 47.6483336,38.8566674 47.605,38.71 C47.5616665,38.5633326 47.5200002,38.4066675 47.48,38.24 C47.4399998,38.4066675 47.3983336,38.5633326 47.355,38.71 C47.3116665,38.8566674 47.2700002,38.9933327 47.23,39.12 L44.04,49 L41.61,49 L37.12,34.54 Z M63.22,38.58 C63.9866705,38.58 64.6816635,38.7033321 65.305,38.95 C65.9283365,39.1966679 66.4599978,39.5466644 66.9,40 C67.3400022,40.4533356 67.6799988,41.0066634 67.92,41.66 C68.1600012,42.3133366 68.28,43.0433293 68.28,43.85 C68.28,44.6633374 68.1600012,45.3966634 67.92,46.05 C67.6799988,46.7033366 67.3400022,47.2599977 66.9,47.72 C66.4599978,48.1800023 65.9283365,48.5333321 65.305,48.78 C64.6816635,49.0266679 63.9866705,49.15 63.22,49.15 C62.4533295,49.15 61.7566698,49.0266679 61.13,48.78 C60.5033302,48.5333321 59.9683355,48.1800023 59.525,47.72 C59.0816644,47.2599977 58.7383345,46.7033366 58.495,46.05 C58.2516654,45.3966634 58.13,44.6633374 58.13,43.85 C58.13,43.0433293 58.2516654,42.3133366 58.495,41.66 C58.7383345,41.0066634 59.0816644,40.4533356 59.525,40 C59.9683355,39.5466644 60.5033302,39.1966679 61.13,38.95 C61.7566698,38.7033321 62.4533295,38.58 63.22,38.58 Z M63.22,47.25 C64.0733376,47.25 64.704998,46.9633362 65.115,46.39 C65.525002,45.8166638 65.73,44.9766722 65.73,43.87 C65.73,42.7633278 65.525002,41.9200029 65.115,41.34 C64.704998,40.7599971 64.0733376,40.47 63.22,40.47 C62.353329,40.47 61.7133354,40.7616637 61.3,41.345 C60.8866646,41.9283363 60.68,42.7699945 60.68,43.87 C60.68,44.9700055 60.8866646,45.8083304 61.3,46.385 C61.7133354,46.9616695 62.353329,47.25 63.22,47.25 Z M70.21,49 L70.21,38.74 L71.66,38.74 C71.9133346,38.74 72.0899995,38.7866662 72.19,38.88 C72.2900005,38.9733338 72.3566665,39.1333322 72.39,39.36 L72.54,40.6 C72.9066685,39.9666635 73.3366642,39.4666685 73.83,39.1 C74.3233358,38.7333315 74.8766636,38.55 75.49,38.55 C75.9966692,38.55 76.416665,38.6666655 76.75,38.9 L76.43,40.75 C76.4099999,40.8700006 76.366667,40.9549997 76.3,41.005 C76.233333,41.0550002 76.1433339,41.08 76.03,41.08 C75.9299995,41.08 75.7933342,41.0566669 75.62,41.01 C75.4466658,40.9633331 75.2166681,40.94 74.93,40.94 C74.4166641,40.94 73.9766685,41.0816653 73.61,41.365 C73.2433315,41.6483348 72.9333346,42.0633306 72.68,42.61 L72.68,49 L70.21,49 Z M80.88,34.14 L80.88,42.65 L81.34,42.65 C81.5066675,42.65 81.6366662,42.6266669 81.73,42.58 C81.8233338,42.5333331 81.9233328,42.4466673 82.03,42.32 L84.58,39.17 C84.6933339,39.036666 84.8133327,38.9316671 84.94,38.855 C85.0666673,38.7783329 85.2333323,38.74 85.44,38.74 L87.7,38.74 L84.51,42.55 C84.3966661,42.6900007 84.2800006,42.8183327 84.16,42.935 C84.0399994,43.0516673 83.9100007,43.1533329 83.77,43.24 C83.9100007,43.3400005 84.0333328,43.456666 84.14,43.59 C84.2466672,43.723334 84.3533328,43.8666659 84.46,44.02 L87.88,49 L85.65,49 C85.4566657,49 85.293334,48.966667 85.16,48.9 C85.026666,48.833333 84.9066672,48.7200008 84.8,48.56 L82.19,44.67 C82.0899995,44.5166659 81.9900005,44.4166669 81.89,44.37 C81.7899995,44.3233331 81.640001,44.3 81.44,44.3 L80.88,44.3 L80.88,49 L78.41,49 L78.41,34.14 L80.88,34.14 Z M95.5,40.74 C95.433333,40.8466672 95.3633337,40.9216665 95.29,40.965 C95.2166663,41.0083336 95.1233339,41.03 95.01,41.03 C94.8899994,41.03 94.7616674,40.996667 94.625,40.93 C94.4883327,40.863333 94.3300009,40.7883337 94.15,40.705 C93.9699991,40.6216663 93.7650012,40.546667 93.535,40.48 C93.3049989,40.413333 93.0333349,40.38 92.72,40.38 C92.2333309,40.38 91.8500014,40.4833323 91.57,40.69 C91.2899986,40.8966677 91.15,41.166665 91.15,41.5 C91.15,41.7200011 91.221666,41.9049993 91.365,42.055 C91.5083341,42.2050007 91.6983321,42.3366661 91.935,42.45 C92.1716679,42.5633339 92.4399985,42.6649996 92.74,42.755 C93.0400015,42.8450005 93.3466651,42.9433328 93.66,43.05 C93.9733349,43.1566672 94.2799985,43.2783327 94.58,43.415 C94.8800015,43.5516674 95.1483322,43.7249989 95.385,43.935 C95.6216679,44.145001 95.811666,44.3966652 95.955,44.69 C96.0983341,44.9833348 96.17,45.3366646 96.17,45.75 C96.17,46.2433358 96.0800009,46.6983313 95.9,47.115 C95.7199991,47.5316688 95.4566684,47.8916652 95.11,48.195 C94.7633316,48.4983348 94.3350025,48.7349992 93.825,48.905 C93.3149975,49.0750009 92.7300033,49.16 92.07,49.16 C91.7166649,49.16 91.3716684,49.1283337 91.035,49.065 C90.6983317,49.0016664 90.3750016,48.9133339 90.065,48.8 C89.7549985,48.6866661 89.4683347,48.5533341 89.205,48.4 C88.9416653,48.2466659 88.710001,48.0800009 88.51,47.9 L89.08,46.96 C89.1533337,46.8466661 89.2399995,46.7600003 89.34,46.7 C89.4400005,46.6399997 89.5666659,46.61 89.72,46.61 C89.8733341,46.61 90.0183327,46.6533329 90.155,46.74 C90.2916674,46.8266671 90.4499991,46.9199995 90.63,47.02 C90.8100009,47.1200005 91.0216655,47.2133329 91.265,47.3 C91.5083346,47.3866671 91.8166648,47.43 92.19,47.43 C92.4833348,47.43 92.734999,47.3950004 92.945,47.325 C93.1550011,47.2549997 93.3283326,47.1633339 93.465,47.05 C93.6016673,46.9366661 93.7016663,46.8050007 93.765,46.655 C93.8283337,46.5049992 93.86,46.3500008 93.86,46.19 C93.86,45.9499988 93.7883341,45.7533341 93.645,45.6 C93.501666,45.4466659 93.3116679,45.3133339 93.075,45.2 C92.8383321,45.0866661 92.5683348,44.9850005 92.265,44.895 C91.9616652,44.8049995 91.6516683,44.7066672 91.335,44.6 C91.0183318,44.4933328 90.7083348,44.3683341 90.405,44.225 C90.1016652,44.081666 89.8316679,43.9000011 89.595,43.68 C89.3583321,43.4599989 89.168334,43.1900016 89.025,42.87 C88.8816659,42.5499984 88.81,42.1633356 88.81,41.71 C88.81,41.2899979 88.8933325,40.8900019 89.06,40.51 C89.2266675,40.1299981 89.471665,39.7983348 89.795,39.515 C90.1183349,39.2316652 90.5216643,39.0050009 91.005,38.835 C91.4883358,38.6649991 92.0466635,38.58 92.68,38.58 C93.3866702,38.58 94.0299971,38.6966655 94.61,38.93 C95.1900029,39.1633345 95.6733314,39.4699981 96.06,39.85 L95.5,40.74 Z"/>
    <g fill="#FFF" transform="translate(7 7)">
      <circle cx="2.5" cy="2.5" r="2.5"/>
      <circle cx="2.5" cy="12.5" r="2.5"/>
      <circle cx="2.5" cy="22.5" r="2.5"/>
      <circle cx="2.5" cy="32.5" r="2.5"/>
      <circle cx="2.5" cy="42.5" r="2.5"/>
    </g>
  </g>
</svg>
